<svg xmlns="http://www.w3.org/2000/svg" width="428" height="747" fill="none" viewBox="0 0 428 747"><g clip-path="url(#a)"><rect width="428" height="1022" fill="#fefefe" rx="24"/><g clip-path="url(#b)"><path fill="#eff1f3" d="M0 0h428v164c0 22.091-17.909 40-40 40H40c-22.091 0-40-17.909-40-40z"/><rect width="24" height="24" x="32" y="84" fill="#fff" rx="12"/><path fill="#013eba" fill-rule="evenodd" d="M40.5 91a1.5 1.5 0 0 0-1.5 1.5v7a1.5 1.5 0 0 0 1.5 1.5h7a1.5 1.5 0 0 0 1.5-1.5v-7a1.5 1.5 0 0 0-1.5-1.5zm1.65 4.35a1 1 0 0 0 0 1.3l2.72 3.175a.5.5 0 0 0 .76-.65L42.908 96l2.722-3.175a.5.5 0 1 0-.76-.65z" clip-rule="evenodd"/><path fill="#000" fill-opacity=".2" fill-rule="evenodd" d="M40.5 91a1.5 1.5 0 0 0-1.5 1.5v7a1.5 1.5 0 0 0 1.5 1.5h7a1.5 1.5 0 0 0 1.5-1.5v-7a1.5 1.5 0 0 0-1.5-1.5zm1.65 4.35a1 1 0 0 0 0 1.3l2.72 3.175a.5.5 0 0 0 .76-.65L42.908 96l2.722-3.175a.5.5 0 1 0-.76-.65z" clip-rule="evenodd"/><path fill="#000" fill-opacity=".2" fill-rule="evenodd" d="M40.5 91a1.5 1.5 0 0 0-1.5 1.5v7a1.5 1.5 0 0 0 1.5 1.5h7a1.5 1.5 0 0 0 1.5-1.5v-7a1.5 1.5 0 0 0-1.5-1.5zm1.65 4.35a1 1 0 0 0 0 1.3l2.72 3.175a.5.5 0 0 0 .76-.65L42.908 96l2.722-3.175a.5.5 0 1 0-.76-.65z" clip-rule="evenodd"/><path fill="#222" d="M73.28 102V88h8.4v2.22H75.7v3.96h4.98v2.2H75.7V102zm13.766.28q-1.5 0-2.66-.68a4.77 4.77 0 0 1-1.78-1.86q-.62-1.2-.62-2.68 0-1.54.68-2.72a4.9 4.9 0 0 1 1.82-1.84q1.16-.66 2.54-.66 1.54 0 2.64.62a4.2 4.2 0 0 1 1.7 1.78q.6 1.16.6 2.84v.46h-8.26v-1.76h6.62l-.46.48q-.08-1.18-.82-1.88-.72-.72-2-.72-1.18 0-2 .86-.8.86-.8 2.3v.54q0 .92.38 1.6.38.66 1.02 1.02t1.4.36q1.04 0 1.7-.48.68-.5.9-1.28h2.2q-.4 1.7-1.64 2.7t-3.16 1m10.948 0q-1.5 0-2.66-.68a4.77 4.77 0 0 1-1.78-1.86q-.62-1.2-.62-2.68 0-1.54.68-2.72a4.9 4.9 0 0 1 1.82-1.84q1.16-.66 2.54-.66 1.539 0 2.64.62a4.2 4.2 0 0 1 1.7 1.78q.6 1.16.6 2.84v.46h-8.26v-1.76h6.62l-.46.48q-.08-1.18-.82-1.88-.72-.72-2-.72-1.18 0-2 .86-.8.86-.8 2.3v.54q0 .92.38 1.6.38.66 1.02 1.02t1.4.36q1.04 0 1.7-.48.68-.5.9-1.28h2.2q-.4 1.7-1.64 2.7t-3.16 1m9.688 0q-1.119 0-1.98-.44a3.5 3.5 0 0 1-1.34-1.22q-.48-.8-.48-1.84h2.3q0 .66.4 1.1.42.42 1.12.42.66 0 1.06-.32t.4-.82-.36-.8-1.12-.52l-1.38-.4q-.999-.28-1.62-.96-.62-.68-.62-1.74 0-.9.48-1.54.5-.64 1.3-1a4.3 4.3 0 0 1 1.78-.36q1.101 0 1.86.4a2.91 2.91 0 0 1 1.62 2.64h-2.16q0-.48-.38-.82-.36-.36-.94-.36-.579 0-.96.26-.36.26-.36.68 0 .44.32.7.34.26 1.04.46l1.44.42q1.02.28 1.66.94t.64 1.78q0 .92-.48 1.68-.46.76-1.3 1.22-.82.44-1.94.44m13.404 0q-1.4 0-2.5-.7a5.03 5.03 0 0 1-1.74-1.88q-.64-1.18-.64-2.64t.64-2.64a5.14 5.14 0 0 1 1.78-1.88q1.14-.7 2.52-.7 1.16 0 2 .38.86.38 1.36 1v-1.1h2.14V102h-2.14v-1.42q-.5.72-1.34 1.22-.82.48-2.08.48m.42-2.12q.82 0 1.5-.38a2.8 2.8 0 0 0 1.08-1.08q.42-.7.42-1.64t-.42-1.64a2.8 2.8 0 0 0-1.08-1.08 3 3 0 0 0-1.5-.38q-.82 0-1.52.38a2.8 2.8 0 0 0-1.08 1.08q-.4.7-.4 1.64t.4 1.64 1.08 1.08q.7.38 1.52.38m7.225 1.84v-9.88h2.14v1.48q.32-.72 1.14-1.24t1.98-.52q1.54 0 2.42.98.88.96.88 2.6V102h-2.3v-6.04q0-.98-.6-1.54a1.92 1.92 0 0 0-1.38-.56q-.78 0-1.38.56t-.6 1.54V102zm14.915.28q-1.4 0-2.5-.7a5 5 0 0 1-1.74-1.88q-.64-1.18-.64-2.64 0-1.1.38-2.04.38-.96 1.04-1.66.68-.72 1.58-1.12a4.7 4.7 0 0 1 1.94-.4q1.16 0 1.96.4.82.4 1.24.94V88h2.3v14h-2.14v-1.42q-.5.72-1.34 1.22-.82.48-2.08.48m.42-2.12a3.03 3.03 0 0 0 1.5-.38 2.8 2.8 0 0 0 1.08-1.08q.42-.7.42-1.64t-.42-1.64a2.8 2.8 0 0 0-1.08-1.08 3 3 0 0 0-1.5-.38q-.82 0-1.52.38a2.8 2.8 0 0 0-1.08 1.08q-.4.7-.4 1.64t.4 1.64q.399.7 1.08 1.08.7.38 1.52.38m11.141 1.84V88h5.06q1.341 0 2.4.52 1.06.5 1.66 1.48.62.98.62 2.36 0 1.4-.62 2.38-.6.96-1.66 1.48-1.059.5-2.4.5h-2.64V102zm2.42-7.4h2.52q1.08 0 1.72-.58.66-.58.66-1.66t-.66-1.64q-.64-.58-1.72-.58h-2.52zm12.729 7.68q-1.4 0-2.5-.7a5.03 5.03 0 0 1-1.74-1.88q-.64-1.18-.64-2.64t.64-2.64a5.1 5.1 0 0 1 1.78-1.88q1.14-.7 2.52-.7 1.16 0 2 .38.86.38 1.36 1v-1.1h2.14V102h-2.14v-1.42q-.5.72-1.34 1.22-.82.48-2.08.48m.42-2.12q.82 0 1.5-.38a2.8 2.8 0 0 0 1.08-1.08q.42-.7.42-1.64t-.42-1.64a2.8 2.8 0 0 0-1.08-1.08 3 3 0 0 0-1.5-.38q-.82 0-1.52.38a2.8 2.8 0 0 0-1.08 1.08q-.4.7-.4 1.64t.4 1.64 1.08 1.08q.7.38 1.52.38m6.984 5.84v-2.1h1.12q.54 0 .86-.22t.52-.7l.38-.98-3.72-9.88h2.5l2 5.56q.14.4.24.8.1.38.16.82l2.64-7.18h2.44l-4.54 11.76q-.4 1.06-1.1 1.58-.68.54-1.78.54zm10.231-4v-9.88h2.14v1.34q.3-.72.98-1.16.7-.46 1.72-.46.96 0 1.6.44.66.42.94 1.08.36-.62 1.06-1.06.72-.46 1.76-.46 1.36 0 2.08.9.74.88.74 2.32V102h-2.3v-6.5q0-.72-.42-1.18-.4-.46-1.1-.46-.72 0-1.14.46-.4.46-.4 1.18v6.5h-2.3v-6.5q0-.72-.42-1.18-.4-.46-1.1-.46t-1.12.46-.42 1.18v6.5zm19.568.28q-1.5 0-2.66-.68a4.77 4.77 0 0 1-1.78-1.86q-.62-1.2-.62-2.68 0-1.54.68-2.72a4.9 4.9 0 0 1 1.82-1.84q1.16-.66 2.54-.66 1.539 0 2.64.62a4.2 4.2 0 0 1 1.7 1.78q.6 1.16.6 2.84v.46h-8.26v-1.76h6.62l-.46.48q-.08-1.18-.82-1.88-.72-.72-2-.72-1.18 0-2 .86-.8.86-.8 2.3v.54q0 .92.38 1.6.38.66 1.02 1.02t1.4.36q1.04 0 1.7-.48.68-.5.9-1.28h2.2q-.4 1.7-1.64 2.7t-3.16 1m6.487-.28v-9.88h2.14v1.48q.321-.72 1.14-1.24.82-.52 1.98-.52 1.54 0 2.42.98.88.96.88 2.6V102h-2.3v-6.04q0-.98-.6-1.54a1.92 1.92 0 0 0-1.38-.56q-.78 0-1.38.56t-.6 1.54V102zm13.957 0q-1.28 0-2.06-.8-.76-.8-.76-2.18V89.6h2.3v9.08q0 1.2 1.2 1.2h1.12V102zm-4.26-7.98v-1.9h6.06v1.9zm10.888 8.26q-1.12 0-1.98-.44a3.5 3.5 0 0 1-1.34-1.22q-.48-.8-.48-1.84h2.3q0 .66.4 1.1.42.42 1.12.42.66 0 1.06-.32t.4-.82-.36-.8-1.12-.52l-1.38-.4q-1-.28-1.62-.96t-.62-1.74q0-.9.48-1.54.5-.64 1.3-1a4.3 4.3 0 0 1 1.78-.36q1.1 0 1.86.4a2.91 2.91 0 0 1 1.62 2.64h-2.16q0-.48-.38-.82-.36-.36-.94-.36t-.96.26q-.36.26-.36.68 0 .44.32.7.34.26 1.04.46l1.44.42q1.02.28 1.66.94t.64 1.78q0 .92-.48 1.68a3.4 3.4 0 0 1-1.3 1.22q-.82.44-1.94.44"/><g opacity=".01"><rect width="44" height="44" x="406" y="74" fill="#f9fafb" rx="22"/><path fill="#000" fill-rule="evenodd" d="M429.002 87a1 1 0 1 0-2 0v.57a7 7 0 0 0-6 6.929v4q.001.003-.005.042a1 1 0 0 1-.03.13q-.045.167-.148.414c-.138.33-.333.71-.548 1.093-.404.72-.607 1.577-.455 2.393a2.57 2.57 0 0 0 1.661 1.971c.845.322 1.97.616 3.455.791q.053.047.125.104c.151.12.365.276.637.431a4.66 4.66 0 0 0 2.308.632c.974 0 1.77-.324 2.309-.632a5 5 0 0 0 .761-.535c1.486-.175 2.61-.469 3.455-.791.946-.36 1.5-1.11 1.661-1.971.153-.816-.051-1.673-.455-2.393a11 11 0 0 1-.547-1.093 4 4 0 0 1-.149-.415 2 2 0 0 1-.035-.17v-4.001a7 7 0 0 0-6-6.928zm-6 7.499a5 5 0 0 1 10 0V98.5c0 .463.174.962.339 1.357.179.429.414.883.648 1.3.228.405.282.787.233 1.046-.04.214-.147.371-.406.47-1.075.409-2.89.827-5.814.827s-4.738-.418-5.813-.827c-.26-.099-.367-.256-.407-.47-.048-.259.006-.641.233-1.046.234-.417.469-.871.649-1.3.165-.395.338-.894.338-1.357z" clip-rule="evenodd"/></g><path fill="#40444b" d="M36.56 140.224q-1.12 0-1.952-.448a3.3 3.3 0 0 1-1.296-1.232q-.448-.8-.448-1.824h1.376q0 1.04.688 1.648t1.696.608q1.04 0 1.648-.56t.608-1.536q0-.528-.288-.896a2.2 2.2 0 0 0-.752-.624 5.3 5.3 0 0 0-1.072-.464l-1.104-.368q-1.152-.384-1.872-1.104-.704-.737-.704-1.872 0-.896.448-1.552a2.97 2.97 0 0 1 1.216-1.04q.785-.384 1.76-.384 1.104 0 1.872.4.784.4 1.184 1.104.416.689.416 1.584h-1.36q0-.816-.592-1.344-.576-.528-1.52-.528t-1.504.496q-.544.48-.544 1.104t.416 1.12q.432.48 1.408.816l1.52.528q.752.257 1.296.672.56.4.848.96.304.56.304 1.296a3.5 3.5 0 0 1-.432 1.712q-.433.784-1.264 1.264-.816.464-2 .464m8.854 0q-1.168 0-2.08-.528a3.86 3.86 0 0 1-1.408-1.488q-.495-.944-.496-2.16 0-1.216.528-2.16a3.86 3.86 0 0 1 1.424-1.472 3.8 3.8 0 0 1 2.016-.544q1.185 0 2.048.496.88.48 1.36 1.376.48.88.48 2.096v.416h-7.024V135.2h6.288l-.512.272q-.064-1.152-.784-1.808-.704-.672-1.872-.672-1.135 0-1.888.816t-.752 2.272v.144q0 .896.352 1.536.367.64.976.976.608.336 1.344.336.992 0 1.616-.48t.864-1.2h1.248a4 4 0 0 1-1.312 2.032q-.96.8-2.416.8m8.914 0q-1.167 0-2.08-.528a3.86 3.86 0 0 1-1.407-1.488q-.497-.944-.497-2.16t.529-2.16a3.86 3.86 0 0 1 1.424-1.472 3.8 3.8 0 0 1 2.016-.544q1.183 0 2.047.496.88.48 1.36 1.376.48.88.48 2.096v.416h-7.024V135.2h6.288l-.511.272q-.065-1.152-.785-1.808-.704-.672-1.871-.672-1.137 0-1.889.816-.75.816-.751 2.272v.144q0 .896.352 1.536.367.64.975.976.609.336 1.344.336.992 0 1.616-.48t.864-1.2h1.249a4 4 0 0 1-1.312 2.032q-.96.8-2.416.8m10.99-.224q-.943 0-1.456-.56-.511-.56-.512-1.52v-7.84h1.312v7.728q0 .976.944.976h.928V140zm-3.136-6.816v-1.088h4.352v1.088zM68.18 140v-11.2h1.312v4.352q.272-.48.928-.88.672-.4 1.6-.4 1.28 0 2.032.848t.752 2.224V140h-1.312v-4.896q0-.992-.576-1.536t-1.408-.544-1.424.544-.592 1.536V140zm12.198.224q-1.168 0-2.08-.528a3.86 3.86 0 0 1-1.408-1.488q-.496-.944-.496-2.16t.528-2.16a3.86 3.86 0 0 1 1.424-1.472 3.8 3.8 0 0 1 2.016-.544q1.184 0 2.048.496.88.48 1.36 1.376.48.88.48 2.096v.416h-7.024V135.2h6.288l-.512.272q-.064-1.152-.784-1.808-.705-.672-1.872-.672-1.137 0-1.888.816-.752.816-.752 2.272v.144q0 .896.352 1.536.367.64.976.976.607.336 1.344.336.992 0 1.616-.48t.864-1.2h1.248a4 4 0 0 1-1.312 2.032q-.96.8-2.416.8m12.158 0q-1.152 0-2.064-.544a3.94 3.94 0 0 1-1.44-1.488q-.528-.944-.528-2.144t.528-2.144a3.94 3.94 0 0 1 1.44-1.488 4 4 0 0 1 2.064-.544q1.04 0 1.824.352.8.352 1.28.992.496.624.64 1.488h-1.312a2.2 2.2 0 0 0-.832-1.168q-.625-.48-1.6-.48-.736 0-1.36.368a2.55 2.55 0 0 0-.992 1.024q-.368.672-.368 1.6t.368 1.6q.384.672 1.008 1.04.624.352 1.344.352.991 0 1.584-.448.591-.464.848-1.2h1.312a3.75 3.75 0 0 1-.688 1.504q-.496.624-1.264.976t-1.792.352m8.964 0q-1.2 0-2.144-.544a4.1 4.1 0 0 1-1.488-1.504q-.544-.944-.544-2.128t.544-2.128a4 4 0 0 1 1.488-1.488q.944-.56 2.144-.56 1.217 0 2.144.56a4 4 0 0 1 1.488 1.488q.544.944.544 2.128t-.544 2.128a4.1 4.1 0 0 1-1.488 1.504q-.927.544-2.144.544m0-1.184q.785 0 1.424-.352a2.7 2.7 0 0 0 1.04-1.04q.4-.672.4-1.6t-.4-1.6a2.6 2.6 0 0 0-1.04-1.024 2.8 2.8 0 0 0-1.424-.368q-.767 0-1.424.368-.656.352-1.056 1.024-.384.672-.384 1.6t.384 1.6a2.8 2.8 0 0 0 1.056 1.04q.656.352 1.424.352m5.783.96v-7.904h1.232v1.104q.272-.512.896-.912.64-.416 1.6-.416 1.296 0 2 .816t.704 2.08V140h-1.312v-4.928q0-.976-.576-1.504-.576-.544-1.328-.544-.735 0-1.328.544-.576.528-.576 1.504V140zm10.875 0q-.945 0-1.456-.56-.512-.56-.512-1.52v-7.84h1.312v7.728q0 .976.944.976h.928V140zm-3.136-6.816v-1.088h4.352v1.088zm9.404 7.04q-1.168 0-2.08-.528a3.87 3.87 0 0 1-1.408-1.488q-.496-.944-.496-2.16t.528-2.16a3.86 3.86 0 0 1 1.424-1.472 3.8 3.8 0 0 1 2.016-.544q1.185 0 2.048.496.88.48 1.36 1.376.48.88.48 2.096v.416h-7.024V135.2h6.288l-.512.272q-.064-1.152-.784-1.808-.704-.672-1.872-.672-1.135 0-1.888.816t-.752 2.272v.144q0 .896.352 1.536.369.64.976.976.609.336 1.344.336.993 0 1.616-.48t.864-1.2h1.248a4 4 0 0 1-1.312 2.032q-.96.8-2.416.8m5.507-.224v-7.904h1.232v1.104q.272-.512.896-.912.64-.416 1.6-.416 1.296 0 2 .816t.704 2.08V140h-1.312v-4.928q0-.976-.576-1.504-.576-.544-1.328-.544-.737 0-1.328.544-.576.528-.576 1.504V140zm10.874 0q-.944 0-1.456-.56t-.512-1.52v-7.84h1.312v7.728q0 .976.944.976h.928V140zm-3.136-6.816v-1.088h4.352v1.088zm12.792 7.04q-1.2 0-2.144-.544a4.1 4.1 0 0 1-1.488-1.504q-.543-.944-.544-2.128 0-1.184.544-2.128a4 4 0 0 1 1.488-1.488q.945-.56 2.144-.56 1.217 0 2.144.56a4 4 0 0 1 1.488 1.488q.544.944.544 2.128t-.544 2.128a4.1 4.1 0 0 1-1.488 1.504q-.927.544-2.144.544m0-1.184q.785 0 1.424-.352a2.7 2.7 0 0 0 1.04-1.04q.4-.672.4-1.6t-.4-1.6a2.6 2.6 0 0 0-1.04-1.024 2.8 2.8 0 0 0-1.424-.368q-.767 0-1.424.368a2.7 2.7 0 0 0-1.056 1.024q-.384.672-.384 1.6t.384 1.6q.4.672 1.056 1.04.656.352 1.424.352m5.975.96v-8.816q0-.752.256-1.28.273-.528.784-.816.513-.288 1.248-.288h.896v1.2h-.688q-.608 0-.896.32-.288.305-.288.912V140zm-1.168-6.816v-1.088h4.352v1.088zM166.503 140q-.944 0-1.456-.56t-.512-1.52v-7.84h1.312v7.728q0 .976.944.976h.928V140zm-3.136-6.816v-1.088h4.352v1.088zm5.997 6.816v-11.2h1.312v4.352q.271-.48.928-.88.672-.4 1.6-.4 1.28 0 2.032.848t.752 2.224V140h-1.312v-4.896q0-.992-.576-1.536-.577-.544-1.408-.544-.833 0-1.424.544-.592.544-.592 1.536V140zm12.197.224q-1.168 0-2.08-.528a3.86 3.86 0 0 1-1.408-1.488q-.496-.944-.496-2.16t.528-2.16a3.86 3.86 0 0 1 1.424-1.472q.896-.544 2.016-.544 1.184 0 2.048.496.88.48 1.36 1.376.48.88.48 2.096v.416h-7.024V135.2h6.288l-.512.272q-.064-1.152-.784-1.808-.703-.672-1.872-.672-1.136 0-1.888.816t-.752 2.272v.144q0 .896.352 1.536.368.64.976.976a2.73 2.73 0 0 0 1.344.336q.992 0 1.616-.48t.864-1.2h1.248a4 4 0 0 1-1.312 2.032q-.96.8-2.416.8m8.702-.224v-7.904h1.232v.96q.24-.512.768-.848.544-.336 1.328-.336.8 0 1.312.336.528.32.784.832a3 3 0 0 1 .88-.816q.56-.352 1.488-.352 1.136 0 1.744.768t.608 1.936V140h-1.312v-5.36q0-.689-.416-1.152-.4-.464-1.136-.464-.737 0-1.152.464-.4.464-.4 1.152V140h-1.312v-5.36q0-.689-.4-1.152-.4-.464-1.136-.464-.737 0-1.152.464-.416.464-.416 1.152V140zm15.697.224a3.9 3.9 0 0 1-2.032-.544 4.1 4.1 0 0 1-1.424-1.504q-.512-.944-.512-2.128t.544-2.128a4.2 4.2 0 0 1 1.472-1.488 3.7 3.7 0 0 1 1.984-.56q1.04 0 1.792.4.752.384 1.184.976v-1.152h1.216V140h-1.216v-1.36a3.7 3.7 0 0 1-1.184 1.136q-.752.448-1.824.448m.176-1.184a2.75 2.75 0 0 0 1.392-.368 2.86 2.86 0 0 0 1.04-1.04q.4-.672.4-1.584t-.4-1.584a2.86 2.86 0 0 0-1.04-1.04 2.75 2.75 0 0 0-1.392-.368q-.768 0-1.424.368a2.74 2.74 0 0 0-1.024 1.04q-.384.672-.384 1.584t.384 1.584 1.024 1.04q.656.368 1.424.368m8.509.96q-.943 0-1.456-.56-.512-.56-.512-1.52v-7.84h1.312v7.728q0 .976.944.976h.928V140zm-3.136-6.816v-1.088h4.352v1.088zm5.997 6.816v-11.2h1.312v4.352q.272-.48.928-.88.672-.4 1.6-.4 1.28 0 2.032.848t.752 2.224V140h-1.312v-4.896q0-.992-.576-1.536t-1.408-.544a2.03 2.03 0 0 0-1.424.544q-.592.544-.592 1.536V140zm12.198.224q-1.168 0-2.08-.528a3.86 3.86 0 0 1-1.408-1.488q-.496-.944-.496-2.16t.528-2.16a3.85 3.85 0 0 1 1.424-1.472q.895-.544 2.016-.544 1.184 0 2.048.496.88.48 1.36 1.376.48.88.48 2.096v.416h-7.024V135.2h6.288l-.512.272q-.064-1.152-.784-1.808-.705-.672-1.872-.672-1.137 0-1.888.816-.752.816-.752 2.272v.144q0 .896.352 1.536.367.64.976.976a2.73 2.73 0 0 0 1.344.336q.992 0 1.616-.48t.864-1.2h1.248a4 4 0 0 1-1.312 2.032q-.96.8-2.416.8m5.506-.224v-7.904h1.232v.96q.24-.512.768-.848.544-.336 1.328-.336.8 0 1.312.336.528.32.784.832a3 3 0 0 1 .88-.816q.56-.352 1.488-.352 1.136 0 1.744.768t.608 1.936V140h-1.312v-5.36q0-.689-.416-1.152-.4-.464-1.136-.464-.737 0-1.152.464-.4.464-.4 1.152V140h-1.312v-5.36q0-.689-.4-1.152-.4-.464-1.136-.464-.737 0-1.152.464-.416.464-.416 1.152V140zm15.697.224a3.9 3.9 0 0 1-2.032-.544 4.1 4.1 0 0 1-1.424-1.504q-.512-.944-.512-2.128t.544-2.128a4.2 4.2 0 0 1 1.472-1.488 3.7 3.7 0 0 1 1.984-.56q1.04 0 1.792.4.752.384 1.184.976v-1.152h1.216V140h-1.216v-1.36a3.7 3.7 0 0 1-1.184 1.136q-.752.448-1.824.448m.176-1.184a2.75 2.75 0 0 0 1.392-.368 2.86 2.86 0 0 0 1.04-1.04q.4-.672.4-1.584t-.4-1.584a2.86 2.86 0 0 0-1.04-1.04 2.75 2.75 0 0 0-1.392-.368q-.768 0-1.424.368a2.74 2.74 0 0 0-1.024 1.04q-.384.672-.384 1.584t.384 1.584 1.024 1.04q.656.368 1.424.368m8.509.96q-.943 0-1.456-.56-.512-.56-.512-1.52v-7.84h1.312v7.728q0 .976.944.976h.928V140zm-3.136-6.816v-1.088h4.352v1.088zm5.997 6.816v-7.904h1.312V140zm.656-9.248a.94.94 0 0 1-.688-.288.94.94 0 0 1-.288-.688q0-.416.288-.688a.94.94 0 0 1 .688-.288q.416 0 .688.288a.9.9 0 0 1 .288.688.94.94 0 0 1-.288.688.9.9 0 0 1-.688.288m6.292 9.472q-1.152 0-2.064-.544a3.94 3.94 0 0 1-1.44-1.488q-.528-.944-.528-2.144t.528-2.144a3.94 3.94 0 0 1 1.44-1.488 4 4 0 0 1 2.064-.544q1.041 0 1.824.352.8.352 1.28.992.496.624.64 1.488h-1.312a2.2 2.2 0 0 0-.832-1.168q-.624-.48-1.6-.48-.736 0-1.36.368a2.56 2.56 0 0 0-.992 1.024q-.368.672-.368 1.6t.368 1.6q.384.672 1.008 1.04.624.352 1.344.352.993 0 1.584-.448.593-.464.848-1.2h1.312a3.74 3.74 0 0 1-.688 1.504q-.495.624-1.264.976-.768.352-1.792.352m7.797 0q-.912 0-1.584-.352a2.6 2.6 0 0 1-1.008-.992 2.94 2.94 0 0 1-.352-1.44h1.312q0 .688.432 1.168.432.464 1.2.464.704 0 1.136-.352.448-.368.448-.912 0-.512-.32-.784-.304-.288-1.024-.496l-1.168-.336q-.816-.24-1.328-.768-.496-.544-.496-1.36 0-.688.368-1.168.384-.496.992-.752a3.4 3.4 0 0 1 1.36-.272q.8 0 1.392.304t.928.832.336 1.184h-1.248q0-.512-.416-.848-.4-.352-.992-.352-.608 0-1.024.272a.82.82 0 0 0-.416.736q0 .448.304.72.32.272 1.008.48l1.168.352q.816.24 1.344.752.544.496.544 1.392 0 .736-.384 1.312a2.76 2.76 0 0 1-1.04.896q-.64.32-1.472.32m7.725-.224v-7.904h1.232v.96q.24-.512.768-.848.544-.336 1.328-.336.8 0 1.312.336.528.32.784.832a3 3 0 0 1 .88-.816q.56-.352 1.488-.352 1.136 0 1.744.768t.608 1.936V140h-1.312v-5.36q0-.689-.416-1.152-.4-.464-1.136-.464t-1.152.464q-.4.464-.4 1.152V140h-1.312v-5.36q0-.689-.4-1.152-.4-.464-1.136-.464t-1.152.464-.416 1.152V140zm15.697.224a3.9 3.9 0 0 1-2.032-.544 4.1 4.1 0 0 1-1.424-1.504q-.512-.944-.512-2.128t.544-2.128a4.2 4.2 0 0 1 1.472-1.488 3.7 3.7 0 0 1 1.984-.56q1.04 0 1.792.4.752.384 1.184.976v-1.152h1.216V140h-1.216v-1.36a3.7 3.7 0 0 1-1.184 1.136q-.751.448-1.824.448m.176-1.184a2.75 2.75 0 0 0 1.392-.368 2.86 2.86 0 0 0 1.04-1.04q.4-.672.4-1.584t-.4-1.584a2.86 2.86 0 0 0-1.04-1.04 2.75 2.75 0 0 0-1.392-.368q-.768 0-1.424.368a2.74 2.74 0 0 0-1.024 1.04q-.384.672-.384 1.584t.384 1.584 1.024 1.04q.656.368 1.424.368m8.509.96q-.943 0-1.456-.56-.512-.56-.512-1.52v-7.84h1.312v7.728q0 .976.944.976h.928V140zm-3.136-6.816v-1.088h4.352v1.088zm9.405 7.04q-1.168 0-2.08-.528a3.86 3.86 0 0 1-1.408-1.488q-.496-.944-.496-2.16t.528-2.16a3.86 3.86 0 0 1 1.424-1.472q.896-.544 2.016-.544 1.184 0 2.048.496.88.48 1.36 1.376.48.88.48 2.096v.416h-7.024V135.2h6.288l-.512.272q-.064-1.152-.784-1.808-.703-.672-1.872-.672-1.136 0-1.888.816t-.752 2.272v.144q0 .896.352 1.536.368.64.976.976a2.73 2.73 0 0 0 1.344.336q.992 0 1.616-.48t.864-1.2h1.248a4 4 0 0 1-1.312 2.032q-.96.8-2.416.8m5.506-.224v-7.904h1.216v1.12h.096V140zm1.312-5.44-.096-1.344q.128-.592.512-.848.4-.272.944-.272h1.456v1.216h-1.584q-1.232 0-1.232 1.248m4.369 5.44v-7.904h1.312V140zm.656-9.248a.94.94 0 0 1-.688-.288.94.94 0 0 1-.288-.688q0-.416.288-.688a.94.94 0 0 1 .688-.288q.415 0 .688.288a.9.9 0 0 1 .288.688.94.94 0 0 1-.288.688.9.9 0 0 1-.688.288m6.228 9.472a3.9 3.9 0 0 1-2.032-.544 4.1 4.1 0 0 1-1.424-1.504q-.512-.944-.512-2.128t.544-2.128a4.2 4.2 0 0 1 1.472-1.488 3.7 3.7 0 0 1 1.984-.56q1.04 0 1.792.4.752.384 1.184.976v-1.152h1.216V140h-1.216v-1.36a3.7 3.7 0 0 1-1.184 1.136q-.752.448-1.824.448m.176-1.184a2.75 2.75 0 0 0 1.392-.368 2.86 2.86 0 0 0 1.04-1.04q.4-.672.4-1.584t-.4-1.584a2.86 2.86 0 0 0-1.04-1.04 2.75 2.75 0 0 0-1.392-.368q-.768 0-1.424.368a2.74 2.74 0 0 0-1.024 1.04q-.384.672-.384 1.584t.384 1.584 1.024 1.04q.656.368 1.424.368m6.221.96v-11.2h1.312V140zm6.209 3.2v-1.216h.928q.384 0 .576-.144.207-.128.352-.48l.544-1.36-2.976-7.904h1.456l1.952 5.248q.08.24.144.496.063.24.128.576l2.432-6.32h1.44l-3.856 9.68q-.272.689-.752 1.056-.465.368-1.264.368zm11.775-2.976q-1.2 0-2.144-.544a4.1 4.1 0 0 1-1.488-1.504q-.544-.944-.544-2.128t.544-2.128a4 4 0 0 1 1.488-1.488q.944-.56 2.144-.56 1.216 0 2.144.56a4 4 0 0 1 1.488 1.488q.544.944.544 2.128t-.544 2.128a4.1 4.1 0 0 1-1.488 1.504q-.928.544-2.144.544m0-1.184q.784 0 1.424-.352a2.7 2.7 0 0 0 1.04-1.04q.4-.672.4-1.6t-.4-1.6a2.6 2.6 0 0 0-1.04-1.024 2.8 2.8 0 0 0-1.424-.368q-.768 0-1.424.368a2.7 2.7 0 0 0-1.056 1.024q-.384.672-.384 1.6t.384 1.6q.4.672 1.056 1.04a2.96 2.96 0 0 0 1.424.352m8.471 1.184q-.815 0-1.424-.384a2.6 2.6 0 0 1-.944-1.056q-.336-.672-.336-1.552v-5.136h1.312v4.928q0 .976.544 1.52.56.528 1.36.528.801 0 1.344-.528.56-.544.56-1.52v-4.928h1.312V140h-1.232v-1.104q-.272.528-.896.928-.607.4-1.6.4m5.898-.224v-7.904h1.216v1.12h.096V140zm1.312-5.44-.096-1.344q.128-.592.512-.848.4-.272.944-.272h1.456v1.216h-1.584q-1.232 0-1.232 1.248M36.704 159.224q-1.152 0-2.064-.544a3.94 3.94 0 0 1-1.44-1.488q-.528-.944-.528-2.144t.528-2.144a3.94 3.94 0 0 1 1.44-1.488 4 4 0 0 1 2.064-.544q1.04 0 1.824.352.8.352 1.28.992.495.624.64 1.488h-1.312a2.2 2.2 0 0 0-.832-1.168q-.624-.48-1.6-.48-.736 0-1.36.368a2.55 2.55 0 0 0-.992 1.024q-.368.672-.368 1.6t.368 1.6q.384.672 1.008 1.04.624.352 1.344.352.992 0 1.584-.448.592-.464.848-1.2h1.312a3.75 3.75 0 0 1-.688 1.504q-.495.624-1.264.976t-1.792.352m5.365-.224v-11.2h1.312v4.352q.271-.48.928-.88.672-.4 1.6-.4 1.28 0 2.032.848t.752 2.224V159H47.38v-4.896q0-.992-.576-1.536-.577-.544-1.408-.544a2.03 2.03 0 0 0-1.424.544q-.592.544-.592 1.536V159zm8.789 0v-7.904h1.312V159zm.656-9.248a.94.94 0 0 1-.688-.288.94.94 0 0 1-.288-.688q0-.416.288-.688a.94.94 0 0 1 .688-.288q.416 0 .688.288a.9.9 0 0 1 .288.688.94.94 0 0 1-.288.688.9.9 0 0 1-.688.288M54.35 159v-11.2h1.313V159zm6.885.224a3.9 3.9 0 0 1-2.032-.544 4.1 4.1 0 0 1-1.424-1.504q-.512-.944-.512-2.128 0-.896.32-1.648.32-.768.864-1.328.56-.56 1.28-.88t1.536-.32q1.04 0 1.776.4t1.104.912V147.8h1.312V159h-1.216v-1.36a3.7 3.7 0 0 1-1.184 1.136q-.752.448-1.824.448m.176-1.184q.752 0 1.392-.368a2.86 2.86 0 0 0 1.04-1.04q.4-.672.4-1.584t-.4-1.584a2.86 2.86 0 0 0-1.04-1.04 2.75 2.75 0 0 0-1.392-.368q-.768 0-1.424.368a2.74 2.74 0 0 0-1.024 1.04q-.384.672-.384 1.584t.384 1.584 1.024 1.04q.656.368 1.424.368m5.293 1.92 4.48-13.12h1.28l-4.48 13.12zm8.199-.96-2.08-7.904h1.392l1.216 5.456q.048.24.112.48.063.224.128.592.064-.368.112-.592.048-.24.112-.48l1.44-5.456h1.344l1.44 5.456q.064.24.112.48.048.224.112.592l.128-.592q.064-.24.112-.48l1.216-5.456h1.392L81.11 159h-1.504l-1.408-5.296-.096-.4a10 10 0 0 1-.096-.528 10 10 0 0 1-.096.528q-.048.208-.096.4L76.407 159zm12.81.224a3.9 3.9 0 0 1-2.032-.544 4.1 4.1 0 0 1-1.424-1.504q-.513-.944-.513-2.128t.544-2.128a4.2 4.2 0 0 1 1.472-1.488 3.7 3.7 0 0 1 1.984-.56q1.04 0 1.793.4.75.384 1.183.976v-1.152h1.216V159H90.72v-1.36a3.7 3.7 0 0 1-1.183 1.136q-.753.448-1.825.448m.175-1.184q.753 0 1.392-.368a2.86 2.86 0 0 0 1.04-1.04q.4-.672.4-1.584t-.4-1.584a2.86 2.86 0 0 0-1.04-1.04 2.75 2.75 0 0 0-1.392-.368q-.767 0-1.424.368a2.74 2.74 0 0 0-1.023 1.04q-.385.672-.385 1.584t.385 1.584 1.023 1.04q.656.368 1.424.368m6.222.96v-7.904h1.216v1.12h.096V159zm1.312-5.44-.096-1.344q.128-.592.512-.848a1.64 1.64 0 0 1 .944-.272h1.456v1.216h-1.584q-1.233 0-1.232 1.248m7.447 5.664a3.9 3.9 0 0 1-2.032-.544 4.1 4.1 0 0 1-1.424-1.504q-.512-.944-.512-2.128 0-.896.32-1.648.321-.768.864-1.328.56-.56 1.28-.88t1.536-.32q1.041 0 1.776.4t1.104.912V147.8h1.312V159h-1.216v-1.36a3.66 3.66 0 0 1-1.184 1.136q-.752.448-1.824.448m.176-1.184q.753 0 1.392-.368a2.85 2.85 0 0 0 1.04-1.04q.4-.672.4-1.584t-.4-1.584a2.85 2.85 0 0 0-1.04-1.04 2.74 2.74 0 0 0-1.392-.368q-.767 0-1.424.368a2.74 2.74 0 0 0-1.024 1.04q-.384.672-.384 1.584t.384 1.584q.385.672 1.024 1.04.657.368 1.424.368m9.417.96v-7.904h1.312V159zm.656-9.248a.94.94 0 0 1-.688-.288.94.94 0 0 1-.288-.688q0-.416.288-.688a.94.94 0 0 1 .688-.288q.417 0 .688.288a.9.9 0 0 1 .288.688.94.94 0 0 1-.288.688.9.9 0 0 1-.688.288m5.269 9.472q-.912 0-1.584-.352a2.6 2.6 0 0 1-1.008-.992 2.94 2.94 0 0 1-.352-1.44h1.312q0 .688.432 1.168.432.464 1.2.464.704 0 1.136-.352.448-.368.448-.912 0-.512-.32-.784-.304-.288-1.024-.496l-1.168-.336q-.816-.24-1.328-.768-.496-.544-.496-1.36 0-.688.368-1.168.384-.496.992-.752a3.4 3.4 0 0 1 1.36-.272q.8 0 1.392.304t.928.832.336 1.184h-1.248q0-.512-.416-.848-.4-.352-.992-.352-.608 0-1.024.272a.82.82 0 0 0-.416.736q0 .448.304.72.32.272 1.008.48l1.168.352q.816.24 1.344.752.544.496.544 1.392 0 .736-.384 1.312a2.76 2.76 0 0 1-1.04.896q-.64.32-1.472.32M128.4 159q-.945 0-1.456-.56-.513-.56-.512-1.52v-7.84h1.312v7.728q0 .976.944.976h.928V159zm-3.136-6.816v-1.088h4.352v1.088zm9.596 7.04q-1.2 0-2.144-.544a4.1 4.1 0 0 1-1.488-1.504q-.543-.944-.544-2.128 0-1.184.544-2.128a4 4 0 0 1 1.488-1.488q.945-.56 2.144-.56 1.217 0 2.144.56a4 4 0 0 1 1.488 1.488q.544.944.544 2.128t-.544 2.128a4.1 4.1 0 0 1-1.488 1.504q-.927.544-2.144.544m0-1.184q.785 0 1.424-.352a2.7 2.7 0 0 0 1.04-1.04q.4-.672.4-1.6t-.4-1.6a2.6 2.6 0 0 0-1.04-1.024 2.8 2.8 0 0 0-1.424-.368q-.767 0-1.424.368a2.7 2.7 0 0 0-1.056 1.024q-.384.672-.384 1.6t.384 1.6q.4.672 1.056 1.04.656.352 1.424.352m11.667 1.184q-.815 0-1.424-.384a2.6 2.6 0 0 1-.944-1.056q-.336-.672-.336-1.552v-5.136h1.312v4.928q0 .976.544 1.52.56.528 1.36.528.801 0 1.344-.528.56-.544.56-1.52v-4.928h1.312V159h-1.232v-1.104q-.272.528-.896.928-.607.4-1.6.4m8.33 0q-.912 0-1.584-.352a2.6 2.6 0 0 1-1.008-.992 2.95 2.95 0 0 1-.352-1.44h1.312q0 .688.432 1.168.432.464 1.2.464.705 0 1.136-.352.448-.368.448-.912 0-.512-.32-.784-.303-.288-1.024-.496l-1.168-.336q-.815-.24-1.328-.768-.496-.544-.496-1.36 0-.688.368-1.168.384-.496.992-.752.624-.272 1.36-.272.801 0 1.392.304.592.304.928.832t.336 1.184h-1.248q0-.512-.416-.848-.4-.352-.992-.352-.607 0-1.024.272a.82.82 0 0 0-.416.736.92.92 0 0 0 .304.72q.321.272 1.008.48l1.168.352q.816.24 1.344.752.544.496.544 1.392 0 .736-.384 1.312a2.75 2.75 0 0 1-1.04.896q-.64.32-1.472.32m7.938 0q-1.168 0-2.08-.528a3.86 3.86 0 0 1-1.408-1.488q-.496-.944-.496-2.16t.528-2.16a3.85 3.85 0 0 1 1.424-1.472q.895-.544 2.016-.544 1.184 0 2.048.496.88.48 1.36 1.376.48.88.48 2.096v.416h-7.024V154.2h6.288l-.512.272q-.064-1.152-.784-1.808-.705-.672-1.872-.672-1.137 0-1.888.816-.752.816-.752 2.272v.144q0 .896.352 1.536.367.64.976.976a2.73 2.73 0 0 0 1.344.336q.992 0 1.616-.48t.864-1.2h1.248a4 4 0 0 1-1.312 2.032q-.96.8-2.416.8m8.894-.224v-8.816q0-.752.256-1.28.271-.528.784-.816.512-.288 1.248-.288h.896v1.2h-.688q-.608 0-.896.32-.288.305-.288.912V159zm-1.168-6.816v-1.088h4.352v1.088zm9.037 7.04q-1.2 0-2.144-.544a4.1 4.1 0 0 1-1.488-1.504q-.544-.944-.544-2.128t.544-2.128a4 4 0 0 1 1.488-1.488q.944-.56 2.144-.56 1.216 0 2.144.56a4 4 0 0 1 1.488 1.488q.544.944.544 2.128t-.544 2.128a4.1 4.1 0 0 1-1.488 1.504q-.928.544-2.144.544m0-1.184q.784 0 1.424-.352a2.7 2.7 0 0 0 1.04-1.04q.4-.672.4-1.6t-.4-1.6a2.6 2.6 0 0 0-1.04-1.024 2.8 2.8 0 0 0-1.424-.368q-.768 0-1.424.368a2.7 2.7 0 0 0-1.056 1.024q-.384.672-.384 1.6t.384 1.6q.4.672 1.056 1.04a2.96 2.96 0 0 0 1.424.352m5.783.96v-7.904h1.216v1.12h.096V159zm1.312-5.44-.096-1.344q.128-.592.512-.848a1.64 1.64 0 0 1 .944-.272h1.456v1.216h-1.584q-1.232 0-1.232 1.248m9.996 5.664q-.912 0-1.584-.352a2.57 2.57 0 0 1-1.008-.992 2.94 2.94 0 0 1-.352-1.44h1.312q0 .688.432 1.168.432.464 1.2.464.704 0 1.136-.352.448-.368.448-.912 0-.512-.32-.784-.304-.288-1.024-.496l-1.168-.336q-.816-.24-1.328-.768-.496-.544-.496-1.36 0-.688.368-1.168.384-.496.992-.752a3.4 3.4 0 0 1 1.36-.272q.8 0 1.392.304t.928.832.336 1.184h-1.248q0-.512-.416-.848-.4-.352-.992-.352-.609 0-1.024.272a.82.82 0 0 0-.416.736q0 .448.304.72.32.272 1.008.48l1.168.352q.816.24 1.344.752.543.496.544 1.392 0 .736-.384 1.312a2.76 2.76 0 0 1-1.04.896q-.64.32-1.472.32m7.985 0q-1.152 0-2.064-.544a3.94 3.94 0 0 1-1.44-1.488q-.528-.944-.528-2.144t.528-2.144a3.94 3.94 0 0 1 1.44-1.488 4 4 0 0 1 2.064-.544q1.04 0 1.824.352.8.352 1.28.992.496.624.64 1.488h-1.312a2.2 2.2 0 0 0-.832-1.168q-.624-.48-1.6-.48-.736 0-1.36.368a2.55 2.55 0 0 0-.992 1.024q-.368.672-.368 1.6t.368 1.6q.384.672 1.008 1.04.624.352 1.344.352.992 0 1.584-.448.592-.464.848-1.2h1.312a3.74 3.74 0 0 1-.688 1.504 3.4 3.4 0 0 1-1.264.976q-.768.352-1.792.352m5.365-.224v-11.2h1.312v4.352q.271-.48.928-.88.672-.4 1.6-.4 1.28 0 2.032.848t.752 2.224V159h-1.312v-4.896q0-.992-.576-1.536t-1.408-.544-1.424.544-.592 1.536V159zm12.389.224q-1.2 0-2.144-.544a4.1 4.1 0 0 1-1.488-1.504q-.544-.944-.544-2.128t.544-2.128a4 4 0 0 1 1.488-1.488q.944-.56 2.144-.56 1.216 0 2.144.56a4 4 0 0 1 1.488 1.488q.544.944.544 2.128t-.544 2.128a4.1 4.1 0 0 1-1.488 1.504q-.928.544-2.144.544m0-1.184q.784 0 1.424-.352a2.7 2.7 0 0 0 1.04-1.04q.4-.672.4-1.6t-.4-1.6a2.6 2.6 0 0 0-1.04-1.024 2.8 2.8 0 0 0-1.424-.368q-.768 0-1.424.368a2.7 2.7 0 0 0-1.056 1.024q-.384.672-.384 1.6t.384 1.6q.4.672 1.056 1.04a2.96 2.96 0 0 0 1.424.352m9.383 1.184q-1.2 0-2.144-.544a4.1 4.1 0 0 1-1.488-1.504q-.544-.944-.544-2.128t.544-2.128a4 4 0 0 1 1.488-1.488q.944-.56 2.144-.56 1.216 0 2.144.56a4 4 0 0 1 1.488 1.488q.544.944.544 2.128t-.544 2.128a4.1 4.1 0 0 1-1.488 1.504q-.928.544-2.144.544m0-1.184q.784 0 1.424-.352a2.7 2.7 0 0 0 1.04-1.04q.4-.672.4-1.6t-.4-1.6a2.6 2.6 0 0 0-1.04-1.024 2.8 2.8 0 0 0-1.424-.368q-.768 0-1.424.368a2.7 2.7 0 0 0-1.056 1.024q-.384.672-.384 1.6t.384 1.6q.4.672 1.056 1.04a2.96 2.96 0 0 0 1.424.352m5.783.96v-11.2h1.312V159z"/></g><g clip-path="url(#c)"><rect width="366" height="141" x="31" y="248" fill="#0065ff" rx="16"/><g stroke="#fff" opacity=".3"><path d="M197.094 391.511c-8.166-12.167-12.5-34.7 35.5-27.5 60 9 79.5 61.499 91.5 8.999s-2.5-70 27-71 68.5 72.5 96.5 40.5m-107.058-83.051c8.023 12.262 12.091 34.845-35.821 27.081-59.89-9.705-78.771-62.43-91.387-10.074-12.617 52.355 1.677 70.024-27.833 70.677s-67.643-73.3-96.017-41.631"/><path d="M-9.104 455.426c-14.378-2.829-33.375-15.698 5.657-44.548 48.79-36.062 99.701-12.728 71.064-58.337-28.638-45.608-51.266-47.729-31.113-69.296s99.702 2.828 96.873-39.598"/></g><path fill="#fff" d="M137.792 295v-11.2h1.936V295zm-3.2-9.424V283.8h8.336v1.776zm11.215 9.648q-1.248 0-2.208-.56a4.1 4.1 0 0 1-1.488-1.504q-.528-.944-.528-2.112t.528-2.112a4.1 4.1 0 0 1 1.488-1.504q.96-.56 2.208-.56 1.263 0 2.208.56a3.95 3.95 0 0 1 1.488 1.504q.543.944.544 2.112 0 1.168-.544 2.112a3.95 3.95 0 0 1-1.488 1.504q-.945.56-2.208.56m0-1.696q.672 0 1.216-.304t.864-.864.32-1.312q0-.768-.32-1.312a2.26 2.26 0 0 0-.864-.864 2.45 2.45 0 0 0-1.216-.304 2.4 2.4 0 0 0-1.2.304 2.24 2.24 0 0 0-.864.864q-.32.544-.32 1.312 0 .752.32 1.312t.864.864a2.4 2.4 0 0 0 1.2.304m7.827 1.472q-1.023 0-1.648-.64-.608-.64-.608-1.744v-7.536h1.84v7.264q0 .96.96.96h.897V295zm-3.408-6.384v-1.52h4.849v1.52zm9.433 6.608q-1.12 0-2-.56a4 4 0 0 1-1.392-1.504q-.512-.944-.512-2.112t.512-2.112a4.1 4.1 0 0 1 1.424-1.504 3.8 3.8 0 0 1 2.016-.56q.928 0 1.6.304.688.304 1.088.8v-.88h1.712V295h-1.712v-1.136a3.4 3.4 0 0 1-1.072.976q-.656.384-1.664.384m.336-1.696q.656 0 1.2-.304.545-.304.864-.864.336-.56.336-1.312t-.336-1.312a2.24 2.24 0 0 0-.864-.864 2.4 2.4 0 0 0-1.2-.304q-.656 0-1.216.304a2.24 2.24 0 0 0-.864.864q-.32.56-.32 1.312t.32 1.312.864.864q.56.304 1.216.304m5.779 1.472v-11.2h1.84V295zm6.643 0v-11.2h4.048q1.071 0 1.92.416a3.05 3.05 0 0 1 1.328 1.184q.496.784.496 1.888 0 1.12-.496 1.904a3.2 3.2 0 0 1-1.328 1.184q-.849.4-1.92.4h-2.112V295zm1.936-5.92h2.016q.863 0 1.376-.464.528-.464.528-1.328t-.528-1.312q-.513-.464-1.376-.464h-2.016zm10.326 6.144q-1.2 0-2.128-.544a3.83 3.83 0 0 1-1.424-1.488q-.495-.96-.496-2.144 0-1.232.544-2.176a3.94 3.94 0 0 1 1.456-1.472 4.04 4.04 0 0 1 2.032-.528q1.233 0 2.112.496a3.37 3.37 0 0 1 1.36 1.424q.48.928.48 2.272v.368h-6.608v-1.408h5.296l-.368.384q-.063-.944-.656-1.504-.576-.576-1.6-.576-.943 0-1.6.688-.64.688-.64 1.84v.432q0 .736.304 1.28.305.528.816.816.513.288 1.12.288.832 0 1.36-.384.544-.4.72-1.024h1.76q-.32 1.36-1.312 2.16t-2.528.8m5.19-.224v-7.904h1.712v1.184q.256-.576.912-.992.657-.416 1.584-.416 1.233 0 1.936.784.705.768.704 2.08V295h-1.84v-4.832q0-.784-.48-1.232a1.53 1.53 0 0 0-1.104-.448 1.57 1.57 0 0 0-1.104.448q-.48.448-.48 1.232V295zm11.933.224q-1.12 0-2-.56a4 4 0 0 1-1.392-1.504q-.513-.944-.512-2.112 0-.88.304-1.632a4.1 4.1 0 0 1 .832-1.328 3.9 3.9 0 0 1 1.264-.896q.72-.32 1.552-.32.927 0 1.568.32.656.32.992.752V283.8h1.84V295h-1.712v-1.136a3.4 3.4 0 0 1-1.072.976q-.656.384-1.664.384m.336-1.696q.655 0 1.2-.304.543-.304.864-.864.336-.56.336-1.312t-.336-1.312a2.26 2.26 0 0 0-.864-.864 2.4 2.4 0 0 0-1.2-.304q-.657 0-1.216.304a2.24 2.24 0 0 0-.864.864q-.32.56-.32 1.312t.32 1.312.864.864q.56.304 1.216.304m5.779 1.472v-7.904h1.84V295zm.928-9.056q-.512 0-.88-.352a1.2 1.2 0 0 1-.352-.864q0-.528.352-.88.368-.352.88-.352.511 0 .864.352.352.352.352.88 0 .497-.352.864a1.17 1.17 0 0 1-.864.352m2.58 9.056v-7.904h1.712v1.184q.257-.576.912-.992.656-.416 1.584-.416 1.232 0 1.936.784.704.768.704 2.08V295h-1.84v-4.832q0-.784-.48-1.232a1.53 1.53 0 0 0-1.104-.448 1.57 1.57 0 0 0-1.104.448q-.48.448-.48 1.232V295zm12.172 3.424q-1.151 0-2-.4-.831-.4-1.296-1.072a2.87 2.87 0 0 1-.512-1.488h1.904q.08.592.56.976.48.4 1.36.4.977 0 1.52-.512.544-.512.544-1.376v-1.328a3 3 0 0 1-1.008.848q-.608.336-1.52.336-1.071 0-1.904-.528a3.76 3.76 0 0 1-1.312-1.424 4.26 4.26 0 0 1-.48-2.016q0-.832.288-1.552.305-.72.816-1.264a3.9 3.9 0 0 1 1.2-.848 3.6 3.6 0 0 1 1.456-.304q.897 0 1.568.336.672.32 1.024.848v-.96h1.696v7.744q0 1.008-.464 1.808a3.37 3.37 0 0 1-1.328 1.296q-.864.48-2.112.48m-.064-5.312q.624 0 1.12-.288.513-.305.816-.816.304-.528.304-1.168a2.27 2.27 0 0 0-.304-1.184 2.17 2.17 0 0 0-.816-.8 2.2 2.2 0 0 0-1.12-.288q-.624 0-1.136.288a2.2 2.2 0 0 0-.816.8 2.4 2.4 0 0 0-.288 1.184q0 .656.288 1.184.304.512.816.8t1.136.288M232.31 295v-11.2h4.048q1.071 0 1.92.416a3.05 3.05 0 0 1 1.328 1.184q.496.784.496 1.888 0 1.12-.496 1.904a3.2 3.2 0 0 1-1.328 1.184q-.849.4-1.92.4h-2.112V295zm1.936-5.92h2.016q.863 0 1.376-.464.528-.464.528-1.328t-.528-1.312q-.513-.464-1.376-.464h-2.016zm10.182 6.144q-1.12 0-2-.56a4.03 4.03 0 0 1-1.392-1.504q-.512-.944-.512-2.112t.512-2.112a4.1 4.1 0 0 1 1.424-1.504 3.8 3.8 0 0 1 2.016-.56q.928 0 1.6.304.689.304 1.088.8v-.88h1.712V295h-1.712v-1.136a3.4 3.4 0 0 1-1.072.976q-.656.384-1.664.384m.336-1.696a2.4 2.4 0 0 0 1.2-.304q.545-.304.864-.864.336-.56.336-1.312t-.336-1.312a2.24 2.24 0 0 0-.864-.864 2.4 2.4 0 0 0-1.2-.304q-.655 0-1.216.304-.543.304-.864.864t-.32 1.312q0 .752.32 1.312.321.56.864.864.56.304 1.216.304m5.588 4.672v-1.68h.896q.432 0 .688-.176t.416-.56l.304-.784-2.976-7.904h2l1.6 4.448q.113.32.192.64.08.304.128.656l2.112-5.744h1.952l-3.632 9.408q-.32.848-.88 1.264-.544.432-1.424.432zm8.184-3.2v-7.904h1.712v1.072a2 2 0 0 1 .784-.928q.56-.368 1.376-.368.768 0 1.28.352.528.336.752.864a2.5 2.5 0 0 1 .848-.848q.577-.368 1.408-.368 1.088 0 1.664.72.592.704.592 1.856V295h-1.84v-5.2q0-.576-.336-.944-.32-.368-.88-.368-.576 0-.912.368-.32.368-.32.944v5.2h-1.84v-5.2q0-.576-.336-.944-.32-.368-.88-.368t-.896.368-.336.944v5.2zm15.655.224q-1.2 0-2.128-.544a3.8 3.8 0 0 1-1.424-1.488q-.496-.96-.496-2.144 0-1.232.544-2.176a3.93 3.93 0 0 1 1.456-1.472 4.04 4.04 0 0 1 2.032-.528q1.231 0 2.112.496.88.496 1.36 1.424t.48 2.272v.368h-6.608v-1.408h5.296l-.368.384q-.065-.944-.656-1.504-.577-.576-1.6-.576-.945 0-1.6.688-.64.688-.64 1.84v.432q0 .736.304 1.28.303.528.816.816.511.288 1.12.288.831 0 1.36-.384.543-.4.72-1.024h1.76q-.32 1.36-1.312 2.16-.993.8-2.528.8m5.19-.224v-7.904h1.712v1.184q.255-.576.912-.992.655-.416 1.584-.416 1.231 0 1.936.784.704.768.704 2.08V295h-1.84v-4.832q0-.784-.48-1.232a1.54 1.54 0 0 0-1.104-.448 1.57 1.57 0 0 0-1.104.448q-.48.448-.48 1.232V295zm11.165 0q-1.024 0-1.648-.64-.608-.64-.608-1.744v-7.536h1.84v7.264q0 .96.96.96h.896V295zm-3.408-6.384v-1.52h4.848v1.52zM107.56 344v-28h4.8l13.6 20.16q-.04-1.12-.08-1.88V316h4.76v28h-4.76l-13.64-20.16q.08 1.12.08 1.92V344zm43.278.56q-3.16 0-5.32-1.24-2.12-1.28-3.2-3.36t-1.08-4.52h4.8q.08 1.28.64 2.32.6 1.04 1.64 1.68 1.08.64 2.56.64 2.04 0 3.4-1.16 1.4-1.16 1.4-3.24 0-2-1.36-3.12-1.36-1.16-3.56-1.16h-1.6v-3.88h1.6q1.92 0 3.12-1.04t1.2-2.8-1.2-2.8q-1.16-1.08-3.2-1.08-1.8 0-3.08 1.12-1.24 1.08-1.4 2.84h-4.56q0-2.24 1.12-4.12 1.16-1.88 3.16-3.04 2.04-1.16 4.8-1.16 2.799 0 4.8 1 2.04 1 3.12 2.76 1.12 1.72 1.12 3.96 0 1.4-.52 2.6a7.3 7.3 0 0 1-1.4 2.08 7.3 7.3 0 0 1-1.8 1.4q1.92.72 3.2 2.4 1.28 1.64 1.28 4.16 0 2.56-1.2 4.52t-3.4 3.12q-2.16 1.12-5.08 1.12m11.252-.56v-3.68l9.56-9.88q1.68-1.72 2.52-3.12.84-1.44.84-3.24 0-1.88-1.16-3.04-1.12-1.16-2.92-1.16-1.96 0-3.08 1.2-1.08 1.16-1.24 3h-4.56q.04-2.56 1.12-4.48a7.77 7.77 0 0 1 3.12-3.04q2-1.12 4.72-1.12 2.8 0 4.72 1.08 1.96 1.08 2.96 2.96 1.04 1.88 1.04 4.36a10 10 0 0 1-.52 3.24q-.52 1.52-1.56 3-1 1.44-2.52 3.04l-6.08 6.4h11V344zm21.133 5.44V347h.4q1.12 0 1.84-.6.76-.6.88-2.08-.28.16-.76.16-1.24 0-2.08-.84-.84-.88-.84-2.16t.84-2.16q.88-.88 2.16-.88 1.6 0 2.48 1.32.88 1.28.88 3.36 0 3.2-1.4 4.76t-3.72 1.56zm19.286-4.88q-2.28 0-4.32-.88-2-.92-3.6-2.72-1.56-1.84-2.44-4.56-.88-2.76-.88-6.4t.88-6.36q.88-2.76 2.44-4.56 1.6-1.84 3.6-2.72 2.04-.92 4.32-.92 3 0 5.52 1.64 2.52 1.6 4 4.84 1.52 3.2 1.52 8.08t-1.52 8.12q-1.48 3.2-4 4.84a10.1 10.1 0 0 1-5.52 1.6m0-4.48q1.72 0 3.12-1.08t2.2-3.32q.84-2.24.84-5.68t-.84-5.68q-.8-2.24-2.2-3.32t-3.12-1.08q-1.76 0-3.2 1.08t-2.32 3.32q-.84 2.24-.84 5.68t.84 5.68q.88 2.24 2.32 3.32t3.2 1.08m24.434 4.48q-2.28 0-4.32-.88-2-.92-3.6-2.72-1.56-1.84-2.44-4.56-.88-2.76-.88-6.4t.88-6.36q.88-2.76 2.44-4.56 1.6-1.84 3.6-2.72 2.04-.92 4.32-.92 3 0 5.52 1.64 2.52 1.6 4 4.84 1.52 3.2 1.52 8.08t-1.52 8.12q-1.48 3.2-4 4.84a10.1 10.1 0 0 1-5.52 1.6m0-4.48q1.72 0 3.12-1.08t2.2-3.32q.84-2.24.84-5.68t-.84-5.68q-.8-2.24-2.2-3.32t-3.12-1.08q-1.76 0-3.2 1.08t-2.32 3.32q-.84 2.24-.84 5.68t.84 5.68q.88 2.24 2.32 3.32t3.2 1.08m24.435 4.48q-2.28 0-4.32-.88-2.001-.92-3.6-2.72-1.56-1.84-2.44-4.56-.88-2.76-.88-6.4t.88-6.36q.88-2.76 2.44-4.56 1.599-1.84 3.6-2.72 2.04-.92 4.32-.92 3 0 5.52 1.64 2.52 1.6 4 4.84 1.52 3.2 1.52 8.08t-1.52 8.12q-1.48 3.2-4 4.84a10.1 10.1 0 0 1-5.52 1.6m0-4.48q1.719 0 3.12-1.08 1.4-1.08 2.2-3.32.84-2.24.84-5.68t-.84-5.68q-.8-2.24-2.2-3.32t-3.12-1.08q-1.76 0-3.2 1.08t-2.32 3.32q-.84 2.24-.84 5.68t.84 5.68q.88 2.24 2.32 3.32t3.2 1.08m16.32 4.4q-1.281 0-2.16-.88-.84-.88-.84-2.12 0-1.28.84-2.12.879-.88 2.16-.88a2.9 2.9 0 0 1 2.12.88q.88.84.88 2.12 0 1.24-.88 2.12a2.9 2.9 0 0 1-2.12.88m16.494.08q-2.28 0-4.32-.88-2-.92-3.6-2.72-1.56-1.84-2.44-4.56-.88-2.76-.88-6.4t.88-6.36q.88-2.76 2.44-4.56 1.6-1.84 3.6-2.72 2.04-.92 4.32-.92 3 0 5.52 1.64 2.52 1.6 4 4.84 1.52 3.2 1.52 8.08t-1.52 8.12q-1.48 3.2-4 4.84a10.1 10.1 0 0 1-5.52 1.6m0-4.48q1.72 0 3.12-1.08t2.2-3.32q.84-2.24.84-5.68t-.84-5.68q-.8-2.24-2.2-3.32t-3.12-1.08q-1.76 0-3.2 1.08t-2.32 3.32q-.84 2.24-.84 5.68t.84 5.68q.88 2.24 2.32 3.32t3.2 1.08m24.434 4.48q-2.28 0-4.32-.88-2-.92-3.6-2.72-1.56-1.84-2.44-4.56-.88-2.76-.88-6.4t.88-6.36q.88-2.76 2.44-4.56 1.6-1.84 3.6-2.72 2.04-.92 4.32-.92 3 0 5.52 1.64 2.52 1.6 4 4.84 1.52 3.2 1.52 8.08t-1.52 8.12q-1.48 3.2-4 4.84a10.1 10.1 0 0 1-5.52 1.6m0-4.48q1.72 0 3.12-1.08t2.2-3.32q.84-2.24.84-5.68t-.84-5.68q-.8-2.24-2.2-3.32t-3.12-1.08q-1.76 0-3.2 1.08t-2.32 3.32q-.84 2.24-.84 5.68t.84 5.68q.88 2.24 2.32 3.32t3.2 1.08"/></g><path fill="#000" d="M33.024 583v-11.2h4.048q1.073 0 1.92.416a3.04 3.04 0 0 1 1.328 1.184q.495.784.496 1.888 0 1.12-.496 1.904-.48.768-1.328 1.184-.847.4-1.92.4H34.96V583zm1.936-5.92h2.016q.864 0 1.376-.464.528-.464.528-1.328t-.528-1.312q-.512-.464-1.376-.464H34.96zm10.183 6.144q-1.12 0-2-.56a4 4 0 0 1-1.392-1.504q-.512-.943-.512-2.112 0-1.168.512-2.112a4.1 4.1 0 0 1 1.424-1.504 3.8 3.8 0 0 1 2.016-.56q.928 0 1.6.304.688.304 1.088.8v-.88h1.712V583h-1.712v-1.136a3.4 3.4 0 0 1-1.072.976q-.656.384-1.664.384m.336-1.696q.656 0 1.2-.304.543-.305.864-.864.336-.56.336-1.312t-.336-1.312a2.25 2.25 0 0 0-.864-.864 2.4 2.4 0 0 0-1.2-.304q-.656 0-1.216.304-.544.305-.864.864-.32.56-.32 1.312t.32 1.312.864.864q.56.304 1.216.304m5.587 4.672v-1.68h.896q.433 0 .688-.176.256-.176.416-.56l.304-.784-2.976-7.904h2l1.6 4.448q.113.32.192.64.08.304.128.656l2.112-5.744h1.952l-3.632 9.408q-.32.848-.88 1.264-.543.432-1.424.432zm8.185-3.2v-7.904h1.712v1.072q.24-.576.784-.928.56-.368 1.376-.368.768 0 1.28.352.528.336.752.864.287-.496.848-.848.576-.368 1.408-.368 1.088 0 1.664.72.592.704.592 1.856V583h-1.84v-5.2q0-.576-.336-.944-.32-.368-.88-.368-.576 0-.912.368-.32.368-.32.944v5.2h-1.84v-5.2q0-.576-.336-.944-.32-.368-.88-.368t-.896.368-.336.944v5.2zm15.654.224q-1.2 0-2.128-.544a3.8 3.8 0 0 1-1.424-1.488q-.495-.96-.496-2.144 0-1.232.544-2.176a3.94 3.94 0 0 1 1.456-1.472 4.04 4.04 0 0 1 2.032-.528q1.232 0 2.112.496t1.36 1.424.48 2.272v.368h-6.608v-1.408h5.296l-.368.384q-.064-.944-.656-1.504-.576-.576-1.6-.576-.945 0-1.6.688-.64.688-.64 1.84v.432q0 .736.304 1.28.304.528.816.816t1.12.288q.832 0 1.36-.384.544-.4.72-1.024h1.76q-.32 1.36-1.312 2.16t-2.528.8m5.19-.224v-7.904h1.712v1.184q.256-.576.912-.992.657-.416 1.584-.416 1.233 0 1.936.784.705.768.704 2.08V583h-1.84v-4.832q0-.784-.48-1.232a1.53 1.53 0 0 0-1.104-.448 1.57 1.57 0 0 0-1.104.448q-.48.448-.48 1.232V583zm11.166 0q-1.024 0-1.648-.64-.609-.64-.608-1.744v-7.536h1.84v7.264q0 .96.96.96h.896V583zm-3.408-6.384v-1.52H92.7v1.52zM97.105 583v-11.2h1.936v4.352h5.68V571.8h1.936V583h-1.936v-5.072h-5.68V583zm11.226 0v-7.904h1.84V583zm.928-9.056q-.513 0-.88-.352a1.2 1.2 0 0 1-.352-.864q0-.528.352-.88.367-.352.88-.352.511 0 .864.352.352.352.352.88 0 .497-.352.864a1.17 1.17 0 0 1-.864.352m5.172 9.28q-.895 0-1.584-.352a2.8 2.8 0 0 1-1.072-.976q-.384-.64-.384-1.472h1.84q0 .528.32.88.336.336.896.336.528 0 .848-.256a.8.8 0 0 0 .32-.656.79.79 0 0 0-.288-.64q-.288-.24-.896-.416l-1.104-.32q-.8-.223-1.296-.768t-.496-1.392q0-.72.384-1.232a2.7 2.7 0 0 1 1.04-.8 3.4 3.4 0 0 1 1.424-.288q.88 0 1.488.32a2.33 2.33 0 0 1 1.296 2.112h-1.728a.85.85 0 0 0-.304-.656q-.288-.288-.752-.288-.463 0-.768.208a.64.64 0 0 0-.288.544q0 .352.256.56.272.208.832.368l1.152.336q.816.224 1.328.752t.512 1.424q0 .736-.384 1.344a2.7 2.7 0 0 1-1.04.976q-.656.352-1.552.352m6.87-.224q-1.024 0-1.648-.64-.608-.64-.608-1.744v-7.536h1.84v7.264q0 .96.96.96h.896V583zm-3.408-6.384v-1.52h4.848v1.52zm9.722 6.608q-1.248 0-2.208-.56a4.1 4.1 0 0 1-1.488-1.504q-.528-.943-.528-2.112 0-1.168.528-2.112a4.1 4.1 0 0 1 1.488-1.504q.96-.56 2.208-.56 1.263 0 2.208.56a3.95 3.95 0 0 1 1.488 1.504q.543.943.544 2.112 0 1.168-.544 2.112a3.95 3.95 0 0 1-1.488 1.504q-.945.56-2.208.56m0-1.696q.672 0 1.216-.304.543-.305.864-.864.32-.56.32-1.312 0-.768-.32-1.312a2.26 2.26 0 0 0-.864-.864 2.45 2.45 0 0 0-1.216-.304 2.4 2.4 0 0 0-1.2.304 2.24 2.24 0 0 0-.864.864q-.32.544-.32 1.312 0 .752.32 1.312t.864.864a2.4 2.4 0 0 0 1.2.304m5.404 1.472v-7.904h1.712v1.312h.128V583zm1.84-4.912-.128-1.68q.129-.703.56-1.008.449-.304.992-.304h1.2v1.728h-1.36q-1.264 0-1.264 1.264m3.523 8.112v-1.68h.896q.433 0 .688-.176.257-.176.416-.56l.304-.784-2.976-7.904h2l1.6 4.448q.113.32.192.64.08.304.128.656l2.112-5.744h1.952l-3.632 9.408q-.32.848-.88 1.264-.543.432-1.424.432z"/><g filter="url(#d)"><rect width="364" height="73" x="32" y="604" fill="#f9fafb" rx="8" shape-rendering="crispEdges"/><rect width="363" height="72" x="32.5" y="604.5" stroke="#e4e7ec" rx="7.5" shape-rendering="crispEdges"/><path fill="#000" d="M57.42 645.196q-1.064 0-1.834-.392a2.86 2.86 0 0 1-1.162-1.12q-.406-.728-.406-1.666h1.708q0 .742.49 1.176t1.232.434q.755 0 1.19-.378t.434-1.05a.95.95 0 0 0-.238-.658 1.8 1.8 0 0 0-.602-.476 4.3 4.3 0 0 0-.84-.35l-1.078-.364a3.7 3.7 0 0 1-1.54-.952q-.602-.644-.602-1.68 0-.812.42-1.414.434-.616 1.134-.952a3.55 3.55 0 0 1 1.582-.35q1.05 0 1.778.378.728.364 1.106 1.022.378.644.378 1.484h-1.68q0-.588-.434-.966t-1.148-.378q-.645 0-1.05.322-.406.322-.406.756 0 .462.35.784.364.308 1.134.574l1.33.462q.616.21 1.092.574t.742.868.266 1.162q0 .882-.406 1.596a2.86 2.86 0 0 1-1.148 1.134q-.742.42-1.792.42m7.625 0q-1.05 0-1.862-.476a3.5 3.5 0 0 1-1.274-1.316 3.8 3.8 0 0 1-.462-1.862q0-1.036.462-1.862a3.4 3.4 0 0 1 1.274-1.302q.813-.49 1.862-.49 1.008 0 1.736.336.729.336 1.162.938.435.588.546 1.372h-1.652a1.64 1.64 0 0 0-.616-.826q-.447-.336-1.176-.336-.532 0-.994.266a2 2 0 0 0-.728.756q-.266.476-.266 1.148 0 .658.266 1.148.28.49.728.756.463.266.994.266.729 0 1.162-.308.435-.322.63-.854h1.652a3.5 3.5 0 0 1-.602 1.4q-.434.588-1.148.924-.7.322-1.694.322M69.49 645v-9.8h1.61v3.822q.237-.434.812-.784.573-.35 1.386-.35 1.077 0 1.722.714.657.7.658 1.89V645h-1.596v-4.13q0-.728-.434-1.148-.42-.42-1.05-.42t-1.064.42q-.435.42-.434 1.148V645zm10.925.196q-1.092 0-1.932-.49a3.6 3.6 0 0 1-1.302-1.316 3.7 3.7 0 0 1-.462-1.848q0-1.021.462-1.848a3.6 3.6 0 0 1 1.302-1.316q.84-.49 1.932-.49 1.107 0 1.932.49.84.49 1.302 1.316.477.827.476 1.848 0 1.022-.476 1.848a3.46 3.46 0 0 1-1.302 1.316q-.825.49-1.932.49m0-1.484q.588 0 1.064-.266t.756-.756.28-1.148q0-.672-.28-1.148a1.96 1.96 0 0 0-.756-.756 2.15 2.15 0 0 0-1.064-.266 2.1 2.1 0 0 0-1.05.266q-.475.266-.756.756-.28.476-.28 1.148 0 .658.28 1.148t.756.756a2.1 2.1 0 0 0 1.05.266m8.005 1.484q-1.091 0-1.931-.49a3.6 3.6 0 0 1-1.303-1.316 3.7 3.7 0 0 1-.462-1.848q0-1.021.462-1.848a3.6 3.6 0 0 1 1.302-1.316q.84-.49 1.933-.49 1.105 0 1.931.49.84.49 1.302 1.316.477.827.477 1.848t-.477 1.848a3.46 3.46 0 0 1-1.301 1.316q-.827.49-1.932.49m0-1.484q.588 0 1.064-.266t.757-.756.28-1.148q0-.672-.28-1.148a1.96 1.96 0 0 0-.757-.756 2.15 2.15 0 0 0-1.063-.266q-.575 0-1.05.266-.477.266-.756.756-.28.476-.28 1.148 0 .658.28 1.148.279.49.756.756.475.266 1.05.266M93.15 645v-9.8h1.61v9.8zm5.811 0v-9.8h5.88v1.554h-4.186v2.772h3.486v1.54h-3.486V645zm9.637.196q-1.05 0-1.862-.476a3.33 3.33 0 0 1-1.246-1.302q-.434-.84-.434-1.876 0-1.078.476-1.904a3.44 3.44 0 0 1 1.274-1.288 3.53 3.53 0 0 1 1.778-.462q1.077 0 1.848.434.77.434 1.19 1.246t.42 1.988v.322h-5.782v-1.232h4.634l-.322.336q-.057-.826-.574-1.316-.504-.504-1.4-.504a1.86 1.86 0 0 0-1.4.602q-.56.602-.56 1.61v.378q0 .644.266 1.12.266.462.714.714t.98.252q.728 0 1.19-.336.475-.35.63-.896h1.54q-.28 1.19-1.148 1.89t-2.212.7m7.663 0q-1.05 0-1.862-.476a3.34 3.34 0 0 1-1.246-1.302 4 4 0 0 1-.434-1.876q0-1.078.476-1.904a3.44 3.44 0 0 1 1.274-1.288 3.53 3.53 0 0 1 1.778-.462q1.078 0 1.848.434t1.19 1.246.42 1.988v.322h-5.782v-1.232h4.634l-.322.336q-.056-.826-.574-1.316-.504-.504-1.4-.504-.826 0-1.4.602-.56.602-.56 1.61v.378q0 .644.266 1.12.266.462.714.714t.98.252q.728 0 1.19-.336.475-.35.63-.896h1.54q-.28 1.19-1.148 1.89t-2.212.7m6.782 0q-.784 0-1.386-.308a2.43 2.43 0 0 1-.938-.854 2.45 2.45 0 0 1-.336-1.288h1.61q0 .462.28.77.294.294.784.294.462 0 .742-.224a.7.7 0 0 0 .28-.574.7.7 0 0 0-.252-.56q-.252-.21-.784-.364l-.966-.28q-.7-.197-1.134-.672t-.434-1.218q0-.63.336-1.078.35-.448.91-.7a3 3 0 0 1 1.246-.252q.77 0 1.302.28a2.04 2.04 0 0 1 1.134 1.848h-1.512a.75.75 0 0 0-.266-.574q-.252-.252-.658-.252t-.672.182a.56.56 0 0 0-.252.476.6.6 0 0 0 .224.49q.238.182.728.322l1.008.294q.714.196 1.162.658t.448 1.246q0 .643-.336 1.176a2.37 2.37 0 0 1-.91.854q-.574.308-1.358.308M288.524 634v-11.2h1.92l5.44 8.064a46 46 0 0 0-.032-.752V622.8h1.904V634h-1.904l-5.456-8.064q.032.448.032.768V634zm13.663 0v-1.472l3.824-3.952q.672-.688 1.008-1.248.336-.576.336-1.296 0-.752-.464-1.216-.448-.464-1.168-.464-.784 0-1.232.48-.432.463-.496 1.2h-1.824q.016-1.024.448-1.792a3.1 3.1 0 0 1 1.248-1.216q.8-.448 1.888-.448 1.12 0 1.888.432a2.9 2.9 0 0 1 1.184 1.184q.416.752.416 1.744 0 .688-.208 1.296a4.8 4.8 0 0 1-.624 1.2q-.4.576-1.008 1.216l-2.432 2.56h4.4V634zm8.118 0v-1.472l3.824-3.952q.672-.688 1.008-1.248.336-.576.336-1.296 0-.752-.464-1.216-.448-.464-1.168-.464-.785 0-1.232.48-.433.463-.496 1.2h-1.824q.015-1.024.448-1.792a3.1 3.1 0 0 1 1.248-1.216q.8-.448 1.888-.448 1.12 0 1.888.432.783.432 1.184 1.184.416.752.416 1.744 0 .688-.208 1.296a4.8 4.8 0 0 1-.624 1.2q-.4.576-1.008 1.216l-2.432 2.56h4.4V634zm8.453 2.176v-.976h.16q.448 0 .736-.24.304-.24.352-.832a.6.6 0 0 1-.304.064 1.13 1.13 0 0 1-.832-.336 1.2 1.2 0 0 1-.336-.864q0-.511.336-.864.353-.352.864-.352.64 0 .992.528.352.511.352 1.344 0 1.28-.56 1.904t-1.488.624zm7.714-1.952a4.3 4.3 0 0 1-1.728-.352 4.4 4.4 0 0 1-1.44-1.088q-.624-.737-.976-1.824-.351-1.104-.352-2.56 0-1.457.352-2.544.352-1.104.976-1.824a4.1 4.1 0 0 1 1.44-1.088 4.2 4.2 0 0 1 1.728-.368q1.2 0 2.208.656 1.009.64 1.6 1.936.609 1.28.608 3.232 0 1.952-.608 3.248-.591 1.28-1.6 1.936a4.04 4.04 0 0 1-2.208.64m0-1.792q.688 0 1.248-.432t.88-1.328q.336-.896.336-2.272t-.336-2.272q-.32-.896-.88-1.328a2 2 0 0 0-1.248-.432q-.704 0-1.28.432t-.928 1.328q-.336.896-.336 2.272t.336 2.272q.352.896.928 1.328t1.28.432m9.774 1.792a4.3 4.3 0 0 1-1.728-.352 4.4 4.4 0 0 1-1.44-1.088q-.624-.737-.976-1.824-.352-1.104-.352-2.56 0-1.457.352-2.544.352-1.104.976-1.824a4.1 4.1 0 0 1 1.44-1.088 4.2 4.2 0 0 1 1.728-.368q1.2 0 2.208.656 1.008.64 1.6 1.936.608 1.28.608 3.232t-.608 3.248q-.592 1.28-1.6 1.936a4.04 4.04 0 0 1-2.208.64m0-1.792q.688 0 1.248-.432t.88-1.328q.336-.896.336-2.272t-.336-2.272q-.32-.896-.88-1.328a2 2 0 0 0-1.248-.432q-.704 0-1.28.432t-.928 1.328q-.336.896-.336 2.272t.336 2.272q.352.896.928 1.328t1.28.432m9.774 1.792a4.3 4.3 0 0 1-1.728-.352 4.4 4.4 0 0 1-1.44-1.088q-.624-.737-.976-1.824-.352-1.104-.352-2.56 0-1.457.352-2.544.352-1.104.976-1.824a4.1 4.1 0 0 1 1.44-1.088 4.2 4.2 0 0 1 1.728-.368q1.2 0 2.208.656 1.008.64 1.6 1.936.608 1.28.608 3.232t-.608 3.248q-.592 1.28-1.6 1.936a4.04 4.04 0 0 1-2.208.64m0-1.792q.688 0 1.248-.432t.88-1.328q.336-.896.336-2.272t-.336-2.272q-.32-.896-.88-1.328a2 2 0 0 0-1.248-.432q-.704 0-1.28.432t-.928 1.328q-.336.896-.336 2.272t.336 2.272q.352.896.928 1.328t1.28.432m6.528 1.76a1.174 1.174 0 0 1-1.2-1.2q0-.512.336-.848.353-.352.864-.352.496 0 .848.352.352.336.352.848 0 .496-.352.848a1.16 1.16 0 0 1-.848.352m6.598.032a4.3 4.3 0 0 1-1.728-.352 4.3 4.3 0 0 1-1.44-1.088q-.624-.737-.976-1.824-.352-1.104-.352-2.56 0-1.457.352-2.544.352-1.104.976-1.824a4.1 4.1 0 0 1 1.44-1.088 4.2 4.2 0 0 1 1.728-.368q1.2 0 2.208.656 1.008.64 1.6 1.936.608 1.28.608 3.232t-.608 3.248q-.592 1.28-1.6 1.936a4.04 4.04 0 0 1-2.208.64m0-1.792q.687 0 1.248-.432t.88-1.328q.336-.896.336-2.272t-.336-2.272q-.32-.896-.88-1.328a2 2 0 0 0-1.248-.432q-.704 0-1.28.432t-.928 1.328q-.336.896-.336 2.272t.336 2.272q.351.896.928 1.328.576.432 1.28.432m9.773 1.792a4.3 4.3 0 0 1-1.728-.352 4.4 4.4 0 0 1-1.44-1.088q-.624-.737-.976-1.824-.351-1.104-.352-2.56 0-1.457.352-2.544.352-1.104.976-1.824a4.1 4.1 0 0 1 1.44-1.088 4.2 4.2 0 0 1 1.728-.368q1.2 0 2.208.656 1.009.64 1.6 1.936.608 1.28.608 3.232t-.608 3.248q-.591 1.28-1.6 1.936a4.04 4.04 0 0 1-2.208.64m0-1.792q.689 0 1.248-.432.56-.432.88-1.328.336-.896.336-2.272t-.336-2.272q-.32-.896-.88-1.328a2 2 0 0 0-1.248-.432q-.704 0-1.28.432t-.928 1.328q-.336.896-.336 2.272t.336 2.272q.352.896.928 1.328t1.28.432M316.536 658h-1.032v-7.428h-1.572v-.972h2.604zm6.526 0h-5.1v-.828l2.916-3.084c.744-.78 1.068-1.428 1.068-2.16 0-.924-.612-1.56-1.452-1.56-.948 0-1.476.636-1.548 1.5h-.996c.072-1.38.984-2.436 2.568-2.436 1.512 0 2.448 1.044 2.448 2.424 0 1.056-.492 1.884-1.332 2.796l-2.208 2.376h3.636zm10.513 0h-1.068l-.828-2.184h-3.84l-.828 2.184h-1.068l3.228-8.4h1.176zm-4.032-6.684-1.356 3.564h3.144l-1.356-3.564c-.084-.216-.144-.36-.216-.576-.072.216-.132.36-.216.576m5.823 9.084h-.984v-8.328h.912v1.008c.408-.648 1.248-1.176 2.256-1.176 1.692 0 2.976 1.356 2.976 3.132s-1.38 3.132-3 3.132c-1.068 0-1.776-.516-2.16-1.032zm2.052-3.12c1.164 0 2.124-.876 2.124-2.244s-.96-2.244-2.124-2.244c-1.116 0-2.124.876-2.124 2.244s1.008 2.244 2.124 2.244m6.31-5.208h1.092v.912h-1.188c-.624 0-.924.312-.924.936V658h-.984v-5.928h.912v.84c.132-.588.552-.84 1.092-.84m1.683 7.332h-.144v-.576h.096c.456 0 .72-.204.768-.768a.54.54 0 0 1-.228.048c-.36 0-.66-.3-.66-.696s.3-.708.696-.708c.504 0 .792.42.792 1.116 0 1.056-.48 1.584-1.32 1.584M355.39 658h-5.1v-.828l2.916-3.084c.744-.78 1.068-1.428 1.068-2.16 0-.924-.612-1.56-1.452-1.56-.948 0-1.476.636-1.548 1.5h-.996c.072-1.38.984-2.436 2.568-2.436 1.512 0 2.448 1.044 2.448 2.424 0 1.056-.492 1.884-1.332 2.796l-2.208 2.376h3.636zm4.12.168c-1.656 0-3.264-1.392-3.264-4.368s1.608-4.368 3.264-4.368 3.144 1.392 3.144 4.368-1.488 4.368-3.144 4.368m0-.936c1.104 0 2.088-.936 2.088-3.432s-.984-3.432-2.088-3.432-2.208.936-2.208 3.432 1.104 3.432 2.208 3.432m8.829.768h-5.1v-.828l2.916-3.084c.744-.78 1.068-1.428 1.068-2.16 0-.924-.612-1.56-1.452-1.56-.948 0-1.476.636-1.548 1.5h-.996c.072-1.38.984-2.436 2.568-2.436 1.512 0 2.448 1.044 2.448 2.424 0 1.056-.492 1.884-1.332 2.796l-2.208 2.376h3.636zm5.011 0h-1.032v-2.196h-3.84v-.576l3.756-5.628h1.116v5.34h.852v.864h-.852zm-.984-6.972-2.592 3.912h2.544v-3.108c0-.24.024-.552.048-.804"/></g><g filter="url(#e)"><rect width="364" height="73" x="32" y="693" fill="#f9fafb" rx="8" shape-rendering="crispEdges"/><rect width="363" height="72" x="32.5" y="693.5" stroke="#e4e7ec" rx="7.5" shape-rendering="crispEdges"/><path fill="#000" d="M57.42 734.196q-1.064 0-1.834-.392a2.86 2.86 0 0 1-1.162-1.12q-.406-.728-.406-1.666h1.708q0 .743.49 1.176.49.434 1.232.434.755 0 1.19-.378t.434-1.05a.95.95 0 0 0-.238-.658 1.8 1.8 0 0 0-.602-.476 4.3 4.3 0 0 0-.84-.35l-1.078-.364a3.7 3.7 0 0 1-1.54-.952q-.602-.644-.602-1.68 0-.812.42-1.414.434-.616 1.134-.952a3.55 3.55 0 0 1 1.582-.35q1.05 0 1.778.378.728.364 1.106 1.022.378.644.378 1.484h-1.68q0-.588-.434-.966t-1.148-.378q-.645 0-1.05.322-.406.322-.406.756 0 .462.35.784.364.308 1.134.574l1.33.462q.616.21 1.092.574t.742.868.266 1.162q0 .882-.406 1.596a2.86 2.86 0 0 1-1.148 1.134q-.742.42-1.792.42m7.625 0q-1.05 0-1.862-.476a3.5 3.5 0 0 1-1.274-1.316 3.8 3.8 0 0 1-.462-1.862q0-1.036.462-1.862a3.4 3.4 0 0 1 1.274-1.302q.813-.49 1.862-.49 1.008 0 1.736.336.729.336 1.162.938.435.588.546 1.372h-1.652a1.64 1.64 0 0 0-.616-.826q-.447-.336-1.176-.336-.532 0-.994.266a2 2 0 0 0-.728.756q-.266.476-.266 1.148 0 .658.266 1.148.28.49.728.756.463.266.994.266.729 0 1.162-.308.435-.322.63-.854h1.652a3.5 3.5 0 0 1-.602 1.4q-.434.588-1.148.924-.7.322-1.694.322M69.49 734v-9.8h1.61v3.822q.237-.434.812-.784.573-.35 1.386-.35 1.077 0 1.722.714.657.7.658 1.89V734h-1.596v-4.13q0-.728-.434-1.148-.42-.42-1.05-.42t-1.064.42q-.435.42-.434 1.148V734zm10.925.196q-1.092 0-1.932-.49a3.6 3.6 0 0 1-1.302-1.316 3.7 3.7 0 0 1-.462-1.848q0-1.021.462-1.848a3.6 3.6 0 0 1 1.302-1.316q.84-.49 1.932-.49 1.107 0 1.932.49.84.49 1.302 1.316.477.827.476 1.848 0 1.022-.476 1.848a3.46 3.46 0 0 1-1.302 1.316q-.825.49-1.932.49m0-1.484q.588 0 1.064-.266.477-.265.756-.756.28-.49.28-1.148 0-.672-.28-1.148a1.96 1.96 0 0 0-.756-.756 2.15 2.15 0 0 0-1.064-.266 2.1 2.1 0 0 0-1.05.266q-.475.266-.756.756-.28.476-.28 1.148 0 .658.28 1.148t.756.756a2.1 2.1 0 0 0 1.05.266m8.005 1.484q-1.091 0-1.931-.49a3.6 3.6 0 0 1-1.303-1.316 3.7 3.7 0 0 1-.462-1.848q0-1.021.462-1.848a3.6 3.6 0 0 1 1.302-1.316q.84-.49 1.933-.49 1.105 0 1.931.49.84.49 1.302 1.316.477.827.477 1.848t-.477 1.848a3.46 3.46 0 0 1-1.301 1.316q-.827.49-1.932.49m0-1.484q.588 0 1.064-.266.477-.265.757-.756.28-.49.28-1.148 0-.672-.28-1.148a1.96 1.96 0 0 0-.757-.756 2.15 2.15 0 0 0-1.063-.266q-.575 0-1.05.266-.477.266-.756.756-.28.476-.28 1.148 0 .658.28 1.148.279.49.756.756.475.266 1.05.266M93.15 734v-9.8h1.61v9.8zm5.811 0v-9.8h5.88v1.554h-4.186v2.772h3.486v1.54h-3.486V734zm9.637.196q-1.05 0-1.862-.476a3.33 3.33 0 0 1-1.246-1.302q-.434-.84-.434-1.876 0-1.078.476-1.904a3.44 3.44 0 0 1 1.274-1.288 3.53 3.53 0 0 1 1.778-.462q1.077 0 1.848.434.77.434 1.19 1.246t.42 1.988v.322h-5.782v-1.232h4.634l-.322.336q-.057-.826-.574-1.316-.504-.504-1.4-.504a1.86 1.86 0 0 0-1.4.602q-.56.602-.56 1.61v.378q0 .644.266 1.12.266.462.714.714t.98.252q.728 0 1.19-.336.475-.35.63-.896h1.54q-.28 1.19-1.148 1.89t-2.212.7m7.663 0q-1.05 0-1.862-.476a3.34 3.34 0 0 1-1.246-1.302 4 4 0 0 1-.434-1.876q0-1.078.476-1.904a3.44 3.44 0 0 1 1.274-1.288 3.53 3.53 0 0 1 1.778-.462q1.078 0 1.848.434t1.19 1.246.42 1.988v.322h-5.782v-1.232h4.634l-.322.336q-.056-.826-.574-1.316-.504-.504-1.4-.504-.826 0-1.4.602-.56.602-.56 1.61v.378q0 .644.266 1.12.266.462.714.714t.98.252q.728 0 1.19-.336.475-.35.63-.896h1.54q-.28 1.19-1.148 1.89t-2.212.7m6.782 0q-.784 0-1.386-.308a2.43 2.43 0 0 1-.938-.854 2.45 2.45 0 0 1-.336-1.288h1.61q0 .462.28.77.294.294.784.294.462 0 .742-.224a.7.7 0 0 0 .28-.574.7.7 0 0 0-.252-.56q-.252-.21-.784-.364l-.966-.28q-.7-.197-1.134-.672t-.434-1.218q0-.63.336-1.078.35-.448.91-.7a3 3 0 0 1 1.246-.252q.77 0 1.302.28a2.04 2.04 0 0 1 1.134 1.848h-1.512a.75.75 0 0 0-.266-.574q-.252-.252-.658-.252t-.672.182a.56.56 0 0 0-.252.476.6.6 0 0 0 .224.49q.238.182.728.322l1.008.294q.714.196 1.162.658t.448 1.246q0 .643-.336 1.176a2.37 2.37 0 0 1-.91.854q-.574.308-1.358.308M288.524 723v-11.2h1.92l5.44 8.064a46 46 0 0 0-.032-.752V711.8h1.904V723h-1.904l-5.456-8.064q.032.448.032.768V723zm13.663 0v-1.472l3.824-3.952q.672-.688 1.008-1.248.336-.576.336-1.296 0-.752-.464-1.216-.448-.464-1.168-.464-.784 0-1.232.48-.432.463-.496 1.2h-1.824q.016-1.024.448-1.792a3.1 3.1 0 0 1 1.248-1.216q.8-.448 1.888-.448 1.12 0 1.888.432a2.9 2.9 0 0 1 1.184 1.184q.416.752.416 1.744 0 .688-.208 1.296a4.8 4.8 0 0 1-.624 1.2q-.4.576-1.008 1.216l-2.432 2.56h4.4V723zm8.118 0v-1.472l3.824-3.952q.672-.688 1.008-1.248.336-.576.336-1.296 0-.752-.464-1.216-.448-.464-1.168-.464-.785 0-1.232.48-.433.463-.496 1.2h-1.824q.015-1.024.448-1.792a3.1 3.1 0 0 1 1.248-1.216q.8-.448 1.888-.448 1.12 0 1.888.432.783.432 1.184 1.184.416.752.416 1.744 0 .688-.208 1.296a4.8 4.8 0 0 1-.624 1.2q-.4.576-1.008 1.216l-2.432 2.56h4.4V723zm8.453 2.176v-.976h.16q.448 0 .736-.24.304-.24.352-.832a.6.6 0 0 1-.304.064 1.13 1.13 0 0 1-.832-.336 1.2 1.2 0 0 1-.336-.864q0-.511.336-.864.353-.352.864-.352.64 0 .992.528.352.511.352 1.344 0 1.28-.56 1.904t-1.488.624zm7.714-1.952a4.3 4.3 0 0 1-1.728-.352 4.4 4.4 0 0 1-1.44-1.088q-.624-.737-.976-1.824-.351-1.104-.352-2.56 0-1.457.352-2.544.352-1.104.976-1.824a4.1 4.1 0 0 1 1.44-1.088 4.2 4.2 0 0 1 1.728-.368q1.2 0 2.208.656 1.009.64 1.6 1.936.609 1.28.608 3.232 0 1.952-.608 3.248-.591 1.28-1.6 1.936a4.04 4.04 0 0 1-2.208.64m0-1.792q.688 0 1.248-.432t.88-1.328q.336-.896.336-2.272t-.336-2.272q-.32-.896-.88-1.328a2 2 0 0 0-1.248-.432q-.704 0-1.28.432t-.928 1.328q-.336.896-.336 2.272t.336 2.272q.352.896.928 1.328t1.28.432m9.774 1.792a4.3 4.3 0 0 1-1.728-.352 4.4 4.4 0 0 1-1.44-1.088q-.624-.737-.976-1.824-.352-1.104-.352-2.56 0-1.457.352-2.544.352-1.104.976-1.824a4.1 4.1 0 0 1 1.44-1.088 4.2 4.2 0 0 1 1.728-.368q1.2 0 2.208.656 1.008.64 1.6 1.936.608 1.28.608 3.232t-.608 3.248q-.592 1.28-1.6 1.936a4.04 4.04 0 0 1-2.208.64m0-1.792q.688 0 1.248-.432t.88-1.328q.336-.896.336-2.272t-.336-2.272q-.32-.896-.88-1.328a2 2 0 0 0-1.248-.432q-.704 0-1.28.432t-.928 1.328q-.336.896-.336 2.272t.336 2.272q.352.896.928 1.328t1.28.432m9.774 1.792a4.3 4.3 0 0 1-1.728-.352 4.4 4.4 0 0 1-1.44-1.088q-.624-.737-.976-1.824-.352-1.104-.352-2.56 0-1.457.352-2.544.352-1.104.976-1.824a4.1 4.1 0 0 1 1.44-1.088 4.2 4.2 0 0 1 1.728-.368q1.2 0 2.208.656 1.008.64 1.6 1.936.608 1.28.608 3.232t-.608 3.248q-.592 1.28-1.6 1.936a4.04 4.04 0 0 1-2.208.64m0-1.792q.688 0 1.248-.432t.88-1.328q.336-.896.336-2.272t-.336-2.272q-.32-.896-.88-1.328a2 2 0 0 0-1.248-.432q-.704 0-1.28.432t-.928 1.328q-.336.896-.336 2.272t.336 2.272q.352.896.928 1.328t1.28.432m6.528 1.76a1.174 1.174 0 0 1-1.2-1.2q0-.512.336-.848.353-.352.864-.352.496 0 .848.352.352.336.352.848 0 .496-.352.848a1.16 1.16 0 0 1-.848.352m6.598.032a4.3 4.3 0 0 1-1.728-.352 4.3 4.3 0 0 1-1.44-1.088q-.624-.737-.976-1.824-.352-1.104-.352-2.56 0-1.457.352-2.544.352-1.104.976-1.824a4.1 4.1 0 0 1 1.44-1.088 4.2 4.2 0 0 1 1.728-.368q1.2 0 2.208.656 1.008.64 1.6 1.936.608 1.28.608 3.232t-.608 3.248q-.592 1.28-1.6 1.936a4.04 4.04 0 0 1-2.208.64m0-1.792q.687 0 1.248-.432t.88-1.328q.336-.896.336-2.272t-.336-2.272q-.32-.896-.88-1.328a2 2 0 0 0-1.248-.432q-.704 0-1.28.432t-.928 1.328q-.336.896-.336 2.272t.336 2.272q.351.896.928 1.328.576.432 1.28.432m9.773 1.792a4.3 4.3 0 0 1-1.728-.352 4.4 4.4 0 0 1-1.44-1.088q-.624-.737-.976-1.824-.351-1.104-.352-2.56 0-1.457.352-2.544.352-1.104.976-1.824a4.1 4.1 0 0 1 1.44-1.088 4.2 4.2 0 0 1 1.728-.368q1.2 0 2.208.656 1.009.64 1.6 1.936.608 1.28.608 3.232t-.608 3.248q-.591 1.28-1.6 1.936a4.04 4.04 0 0 1-2.208.64m0-1.792q.689 0 1.248-.432.56-.432.88-1.328.336-.896.336-2.272t-.336-2.272q-.32-.896-.88-1.328a2 2 0 0 0-1.248-.432q-.704 0-1.28.432t-.928 1.328q-.336.896-.336 2.272t.336 2.272q.352.896.928 1.328t1.28.432M316.536 747h-1.032v-7.428h-1.572v-.972h2.604zm6.526 0h-5.1v-.828l2.916-3.084c.744-.78 1.068-1.428 1.068-2.16 0-.924-.612-1.56-1.452-1.56-.948 0-1.476.636-1.548 1.5h-.996c.072-1.38.984-2.436 2.568-2.436 1.512 0 2.448 1.044 2.448 2.424 0 1.056-.492 1.884-1.332 2.796l-2.208 2.376h3.636zm10.513 0h-1.068l-.828-2.184h-3.84l-.828 2.184h-1.068l3.228-8.4h1.176zm-4.032-6.684-1.356 3.564h3.144l-1.356-3.564c-.084-.216-.144-.36-.216-.576-.072.216-.132.36-.216.576m5.823 9.084h-.984v-8.328h.912v1.008c.408-.648 1.248-1.176 2.256-1.176 1.692 0 2.976 1.356 2.976 3.132s-1.38 3.132-3 3.132c-1.068 0-1.776-.516-2.16-1.032zm2.052-3.12c1.164 0 2.124-.876 2.124-2.244s-.96-2.244-2.124-2.244c-1.116 0-2.124.876-2.124 2.244s1.008 2.244 2.124 2.244m6.31-5.208h1.092v.912h-1.188c-.624 0-.924.312-.924.936V747h-.984v-5.928h.912v.84c.132-.588.552-.84 1.092-.84m1.683 7.332h-.144v-.576h.096c.456 0 .72-.204.768-.768a.54.54 0 0 1-.228.048c-.36 0-.66-.3-.66-.696s.3-.708.696-.708c.504 0 .792.42.792 1.116 0 1.056-.48 1.584-1.32 1.584M355.39 747h-5.1v-.828l2.916-3.084c.744-.78 1.068-1.428 1.068-2.16 0-.924-.612-1.56-1.452-1.56-.948 0-1.476.636-1.548 1.5h-.996c.072-1.38.984-2.436 2.568-2.436 1.512 0 2.448 1.044 2.448 2.424 0 1.056-.492 1.884-1.332 2.796l-2.208 2.376h3.636zm4.12.168c-1.656 0-3.264-1.392-3.264-4.368s1.608-4.368 3.264-4.368 3.144 1.392 3.144 4.368-1.488 4.368-3.144 4.368m0-.936c1.104 0 2.088-.936 2.088-3.432s-.984-3.432-2.088-3.432-2.208.936-2.208 3.432 1.104 3.432 2.208 3.432m8.829.768h-5.1v-.828l2.916-3.084c.744-.78 1.068-1.428 1.068-2.16 0-.924-.612-1.56-1.452-1.56-.948 0-1.476.636-1.548 1.5h-.996c.072-1.38.984-2.436 2.568-2.436 1.512 0 2.448 1.044 2.448 2.424 0 1.056-.492 1.884-1.332 2.796l-2.208 2.376h3.636zm5.011 0h-1.032v-2.196h-3.84v-.576l3.756-5.628h1.116v5.34h.852v.864h-.852zm-.984-6.972-2.592 3.912h2.544v-3.108c0-.24.024-.552.048-.804"/></g><path fill="#000" d="M33.024 435v-11.2h4.048q1.073 0 1.92.416a3.04 3.04 0 0 1 1.328 1.184q.495.784.496 1.888 0 1.12-.496 1.904-.48.768-1.328 1.184-.847.4-1.92.4H34.96V435zm1.936-5.92h2.016q.864 0 1.376-.464.528-.464.528-1.328t-.528-1.312q-.512-.464-1.376-.464H34.96zm10.183 6.144q-1.12 0-2-.56a4 4 0 0 1-1.392-1.504q-.512-.944-.512-2.112t.512-2.112a4.1 4.1 0 0 1 1.424-1.504 3.8 3.8 0 0 1 2.016-.56q.928 0 1.6.304.688.304 1.088.8v-.88h1.712V435h-1.712v-1.136a3.4 3.4 0 0 1-1.072.976q-.656.384-1.664.384m.336-1.696q.656 0 1.2-.304t.864-.864q.336-.56.336-1.312t-.336-1.312a2.25 2.25 0 0 0-.864-.864 2.4 2.4 0 0 0-1.2-.304q-.656 0-1.216.304-.544.304-.864.864t-.32 1.312.32 1.312.864.864q.56.304 1.216.304m5.587 4.672v-1.68h.896q.433 0 .688-.176.256-.176.416-.56l.304-.784-2.976-7.904h2l1.6 4.448q.113.32.192.64.08.304.128.656l2.112-5.744h1.952l-3.632 9.408q-.32.848-.88 1.264-.543.432-1.424.432zm8.185-3.2v-7.904h1.712v1.072q.24-.576.784-.928.56-.368 1.376-.368.768 0 1.28.352.528.336.752.864.287-.496.848-.848.576-.368 1.408-.368 1.088 0 1.664.72.592.704.592 1.856V435h-1.84v-5.2q0-.576-.336-.944-.32-.368-.88-.368-.576 0-.912.368-.32.368-.32.944v5.2h-1.84v-5.2q0-.576-.336-.944-.32-.368-.88-.368t-.896.368-.336.944v5.2zm15.654.224q-1.2 0-2.128-.544a3.8 3.8 0 0 1-1.424-1.488q-.495-.96-.496-2.144 0-1.232.544-2.176a3.94 3.94 0 0 1 1.456-1.472 4.04 4.04 0 0 1 2.032-.528q1.232 0 2.112.496t1.36 1.424.48 2.272v.368h-6.608v-1.408h5.296l-.368.384q-.064-.944-.656-1.504-.576-.576-1.6-.576-.945 0-1.6.688-.64.688-.64 1.84v.432q0 .736.304 1.28.304.528.816.816t1.12.288q.832 0 1.36-.384.544-.4.72-1.024h1.76q-.32 1.36-1.312 2.16t-2.528.8m5.19-.224v-7.904h1.712v1.184q.256-.576.912-.992.657-.416 1.584-.416 1.233 0 1.936.784.705.768.704 2.08V435h-1.84v-4.832q0-.784-.48-1.232a1.53 1.53 0 0 0-1.104-.448 1.57 1.57 0 0 0-1.104.448q-.48.448-.48 1.232V435zm11.166 0q-1.024 0-1.648-.64-.609-.64-.608-1.744v-7.536h1.84v7.264q0 .96.96.96h.896V435zm-3.408-6.384v-1.52H92.7v1.52zM97.105 435v-11.2h4.016q.944 0 1.632.368.687.353 1.056.96.384.592.384 1.328 0 .912-.432 1.488t-1.056.864a3.25 3.25 0 0 1 1.44 1.008q.576.688.576 1.824 0 .976-.48 1.744-.465.752-1.312 1.184-.832.432-1.936.432zm1.936-1.776h1.872q.847 0 1.36-.432.512-.448.512-1.28 0-.848-.512-1.28-.513-.448-1.36-.448h-1.872zm0-5.04h1.872q.608 0 1.008-.336.4-.352.4-1.024 0-.656-.4-.992-.4-.352-1.008-.352h-1.872zm6.946 6.816v-7.904h1.712v1.312h.128V435zm1.84-4.912-.128-1.68q.128-.704.56-1.008.448-.304.992-.304h1.2v1.728h-1.36q-1.264 0-1.264 1.264m7.002 5.136q-1.2 0-2.128-.544a3.8 3.8 0 0 1-1.424-1.488q-.496-.96-.496-2.144 0-1.232.544-2.176a3.93 3.93 0 0 1 1.456-1.472 4.04 4.04 0 0 1 2.032-.528q1.231 0 2.112.496.88.496 1.36 1.424t.48 2.272v.368h-6.608v-1.408h5.296l-.368.384q-.065-.944-.656-1.504-.577-.576-1.6-.576-.945 0-1.6.688-.64.688-.64 1.84v.432q0 .736.304 1.28.303.528.816.816.511.288 1.12.288.831 0 1.36-.384.543-.4.72-1.024h1.76q-.32 1.36-1.312 2.16-.993.8-2.528.8m8.614 0q-1.12 0-2-.56a4 4 0 0 1-1.392-1.504q-.512-.944-.512-2.112t.512-2.112a4.1 4.1 0 0 1 1.424-1.504 3.8 3.8 0 0 1 2.016-.56q.928 0 1.6.304.688.304 1.088.8v-.88h1.712V435h-1.712v-1.136a3.4 3.4 0 0 1-1.072.976q-.656.384-1.664.384m.336-1.696q.656 0 1.2-.304t.864-.864q.336-.56.336-1.312t-.336-1.312a2.24 2.24 0 0 0-.864-.864 2.4 2.4 0 0 0-1.2-.304q-.656 0-1.216.304a2.24 2.24 0 0 0-.864.864q-.32.56-.32 1.312t.32 1.312.864.864q.56.304 1.216.304m5.779 1.472v-11.2h1.84V435zm4.464 0-2.896-4.112h2.112l2.928 4.112zm-2.896-4.112 2.736-3.792h2.144l-2.768 3.792zm8.896 4.336q-1.12 0-2-.56a4 4 0 0 1-1.392-1.504q-.513-.944-.512-2.112 0-.88.304-1.632a4.1 4.1 0 0 1 .832-1.328 3.9 3.9 0 0 1 1.264-.896q.72-.32 1.552-.32.927 0 1.568.32.656.32.992.752V423.8h1.84V435h-1.712v-1.136a3.4 3.4 0 0 1-1.072.976q-.656.384-1.664.384m.336-1.696q.656 0 1.2-.304t.864-.864q.336-.56.336-1.312t-.336-1.312a2.26 2.26 0 0 0-.864-.864 2.4 2.4 0 0 0-1.2-.304q-.657 0-1.216.304a2.24 2.24 0 0 0-.864.864q-.32.56-.32 1.312t.32 1.312.864.864q.56.304 1.216.304m9.523 1.696q-1.248 0-2.208-.56a4.1 4.1 0 0 1-1.488-1.504q-.528-.944-.528-2.112t.528-2.112a4.1 4.1 0 0 1 1.488-1.504q.96-.56 2.208-.56 1.264 0 2.208.56a3.95 3.95 0 0 1 1.488 1.504q.544.944.544 2.112t-.544 2.112a3.95 3.95 0 0 1-1.488 1.504q-.944.56-2.208.56m0-1.696q.672 0 1.216-.304t.864-.864.32-1.312q0-.768-.32-1.312a2.24 2.24 0 0 0-.864-.864 2.45 2.45 0 0 0-1.216-.304q-.655 0-1.2.304a2.24 2.24 0 0 0-.864.864q-.32.544-.32 1.312 0 .752.32 1.312t.864.864 1.2.304m6.292 1.472-1.984-7.904h1.92l.96 4.736a8 8 0 0 1 .112.56q.049.272.112.688.064-.416.112-.688.049-.288.112-.56l1.184-4.736h1.76l1.184 4.736q.08.272.112.56.048.272.112.688a9 9 0 0 0 .112-.688l.096-.56.976-4.736h1.92L162.989 435h-2.128l-1.088-4.304-.096-.448a9 9 0 0 1-.096-.544 9 9 0 0 1-.096.544l-.096.448-1.088 4.304zm9.683 0v-7.904h1.712v1.184q.256-.576.912-.992.657-.416 1.584-.416 1.233 0 1.936.784.704.768.704 2.08V435h-1.84v-4.832q0-.784-.48-1.232a1.53 1.53 0 0 0-1.104-.448 1.57 1.57 0 0 0-1.104.448q-.48.448-.48 1.232V435z"/><rect width="169" height="80" x="32.5" y="456.5" fill="#f9fafb" rx="7.5"/><rect width="169" height="80" x="32.5" y="456.5" stroke="#e4e7ec" rx="7.5"/><path fill="#000" d="M83.49 486.196c-1.96 0-3.234-1.26-3.234-3.066h1.204c0 1.218.91 1.974 2.086 1.974 1.218 0 1.974-.7 1.974-1.834 0-.924-.798-1.386-1.848-1.736l-.966-.322c-1.344-.448-2.254-1.274-2.254-2.604 0-1.554 1.288-2.604 2.996-2.604 1.932 0 3.038 1.134 3.038 2.702h-1.19c0-.952-.756-1.638-1.848-1.638-1.106 0-1.792.672-1.792 1.4s.462 1.302 1.596 1.694l1.33.462c1.316.462 2.142 1.274 2.142 2.562 0 1.624-1.162 3.01-3.234 3.01m7.79 0c-2.03 0-3.529-1.554-3.529-3.654s1.526-3.654 3.528-3.654c1.82 0 3.024.966 3.276 2.478h-1.148c-.252-.812-.994-1.442-2.128-1.442-1.302 0-2.38.994-2.38 2.618s1.106 2.618 2.38 2.618c1.162 0 1.834-.574 2.128-1.442h1.148c-.336 1.512-1.484 2.478-3.276 2.478M97.12 486h-1.148v-9.8h1.148v3.808c.322-.56 1.12-1.12 2.212-1.12 1.484 0 2.436 1.092 2.436 2.688V486h-1.148v-4.284c0-1.162-.77-1.82-1.736-1.82s-1.764.658-1.764 1.82zm9.693.196c-2.114 0-3.654-1.582-3.654-3.654s1.54-3.654 3.654-3.654 3.654 1.582 3.654 3.654-1.54 3.654-3.654 3.654m0-1.036c1.358 0 2.506-.994 2.506-2.618s-1.148-2.618-2.506-2.618-2.506.994-2.506 2.618 1.148 2.618 2.506 2.618m8.21 1.036c-2.114 0-3.654-1.582-3.654-3.654s1.54-3.654 3.654-3.654 3.654 1.582 3.654 3.654-1.54 3.654-3.654 3.654m0-1.036c1.358 0 2.506-.994 2.506-2.618s-1.148-2.618-2.506-2.618-2.506.994-2.506 2.618 1.148 2.618 2.506 2.618m6.209.84h-1.148v-9.8h1.148zm6.048 0h-1.204v-9.8h5.754v1.092h-4.55v3.458h3.668v1.092h-3.668zm11.896-3.64v.364h-5.726c.014 1.554 1.05 2.464 2.338 2.464 1.148 0 1.89-.63 2.17-1.47h1.092c-.406 1.442-1.568 2.478-3.262 2.478-2.058 0-3.486-1.526-3.486-3.654s1.512-3.654 3.472-3.654c2.058 0 3.402 1.344 3.402 3.472m-3.416-2.492c-1.12 0-1.988.714-2.24 1.932h4.536c-.154-1.204-1.022-1.932-2.296-1.932m11.216 2.492v.364h-5.726c.014 1.554 1.05 2.464 2.338 2.464 1.148 0 1.89-.63 2.17-1.47h1.092c-.406 1.442-1.568 2.478-3.262 2.478-2.058 0-3.486-1.526-3.486-3.654s1.512-3.654 3.472-3.654c2.058 0 3.402 1.344 3.402 3.472m-3.416-2.492c-1.12 0-1.988.714-2.24 1.932h4.536c-.154-1.204-1.022-1.932-2.296-1.932m6.974 6.328c-1.61 0-2.576-1.022-2.576-2.436h1.148c0 .798.532 1.428 1.428 1.428.812 0 1.386-.462 1.386-1.106 0-.588-.336-.882-1.176-1.12l-1.022-.294c-.952-.28-1.596-.91-1.596-1.862 0-1.204 1.092-1.918 2.38-1.918 1.386 0 2.324.882 2.324 2.03h-1.092c0-.602-.546-1.05-1.232-1.05-.714 0-1.26.322-1.26.882 0 .518.35.812 1.148 1.05l1.022.308c.952.28 1.652.84 1.652 1.876 0 1.288-1.092 2.212-2.534 2.212M68.86 516H65.9v-14h2.96l6.04 9.08c-.04-.78-.04-1.18-.04-1.76V502h2.96v14h-2.96l-6.04-9.08c.04.78.04 1.18.04 1.76zm15.83 0h-2.96v-11.22h-2.78V502h5.74zm6.946.28c-3.24 0-5.76-2.5-5.76-7.28s2.52-7.28 5.76-7.28 5.76 2.5 5.76 7.28-2.52 7.28-5.76 7.28m0-2.76c1.64 0 2.8-1.62 2.8-4.52s-1.16-4.52-2.8-4.52-2.8 1.62-2.8 4.52 1.16 4.52 2.8 4.52m7.296 5.5h-.42v-1.44h.26c.68 0 1.3-.36 1.42-1.38-.12.06-.24.08-.4.08-.98 0-1.74-.74-1.74-1.76 0-.98.78-1.76 1.76-1.76 1.26 0 1.96 1.16 1.96 2.68 0 2.44-1.18 3.58-2.84 3.58m9.267-2.74c-3.24 0-5.76-2.5-5.76-7.28s2.52-7.28 5.76-7.28 5.76 2.5 5.76 7.28-2.52 7.28-5.76 7.28m0-2.76c1.64 0 2.8-1.62 2.8-4.52s-1.16-4.52-2.8-4.52-2.8 1.62-2.8 4.52 1.16 4.52 2.8 4.52m12.471 2.76c-3.24 0-5.76-2.5-5.76-7.28s2.52-7.28 5.76-7.28 5.76 2.5 5.76 7.28-2.52 7.28-5.76 7.28m0-2.76c1.64 0 2.8-1.62 2.8-4.52s-1.16-4.52-2.8-4.52-2.8 1.62-2.8 4.52 1.16 4.52 2.8 4.52m12.472 2.76c-3.24 0-5.76-2.5-5.76-7.28s2.52-7.28 5.76-7.28 5.76 2.5 5.76 7.28-2.52 7.28-5.76 7.28m0-2.76c1.64 0 2.8-1.62 2.8-4.52s-1.16-4.52-2.8-4.52-2.8 1.62-2.8 4.52 1.16 4.52 2.8 4.52m8.176 2.76c-.98 0-1.76-.78-1.76-1.76s.78-1.76 1.76-1.76 1.76.78 1.76 1.76-.78 1.76-1.76 1.76m8.192 0c-3.24 0-5.76-2.5-5.76-7.28s2.52-7.28 5.76-7.28 5.76 2.5 5.76 7.28-2.52 7.28-5.76 7.28m0-2.76c1.64 0 2.8-1.62 2.8-4.52s-1.16-4.52-2.8-4.52-2.8 1.62-2.8 4.52 1.16 4.52 2.8 4.52m12.471 2.76c-3.24 0-5.76-2.5-5.76-7.28s2.52-7.28 5.76-7.28 5.76 2.5 5.76 7.28-2.52 7.28-5.76 7.28m0-2.76c1.64 0 2.8-1.62 2.8-4.52s-1.16-4.52-2.8-4.52-2.8 1.62-2.8 4.52 1.16 4.52 2.8 4.52"/><rect width="169" height="80" x="227.5" y="456.5" fill="#f9fafb" rx="7.5"/><rect width="169" height="80" x="227.5" y="456.5" stroke="#e4e7ec" rx="7.5"/><path fill="#000" d="M263.49 486.196c-1.96 0-3.234-1.26-3.234-3.066h1.204c0 1.218.91 1.974 2.086 1.974 1.218 0 1.974-.7 1.974-1.834 0-.924-.798-1.386-1.848-1.736l-.966-.322c-1.344-.448-2.254-1.274-2.254-2.604 0-1.554 1.288-2.604 2.996-2.604 1.932 0 3.038 1.134 3.038 2.702h-1.19c0-.952-.756-1.638-1.848-1.638-1.106 0-1.792.672-1.792 1.4s.462 1.302 1.596 1.694l1.33.462c1.316.462 2.142 1.274 2.142 2.562 0 1.624-1.162 3.01-3.234 3.01m7.789 0c-2.03 0-3.528-1.554-3.528-3.654s1.526-3.654 3.528-3.654c1.82 0 3.024.966 3.276 2.478h-1.148c-.252-.812-.994-1.442-2.128-1.442-1.302 0-2.38.994-2.38 2.618s1.106 2.618 2.38 2.618c1.162 0 1.834-.574 2.128-1.442h1.148c-.336 1.512-1.484 2.478-3.276 2.478m5.842-.196h-1.148v-9.8h1.148v3.808c.322-.56 1.12-1.12 2.212-1.12 1.484 0 2.436 1.092 2.436 2.688V486h-1.148v-4.284c0-1.162-.77-1.82-1.736-1.82s-1.764.658-1.764 1.82zm9.693.196c-2.114 0-3.654-1.582-3.654-3.654s1.54-3.654 3.654-3.654 3.654 1.582 3.654 3.654-1.54 3.654-3.654 3.654m0-1.036c1.358 0 2.506-.994 2.506-2.618s-1.148-2.618-2.506-2.618-2.506.994-2.506 2.618 1.148 2.618 2.506 2.618m8.21 1.036c-2.114 0-3.654-1.582-3.654-3.654s1.54-3.654 3.654-3.654 3.654 1.582 3.654 3.654-1.54 3.654-3.654 3.654m0-1.036c1.358 0 2.506-.994 2.506-2.618s-1.148-2.618-2.506-2.618-2.506.994-2.506 2.618 1.148 2.618 2.506 2.618m6.209.84h-1.148v-9.8h1.148zm10.64 0h-5.796v-9.8h5.754v1.092h-4.55v2.954h3.836v1.092h-3.836v3.57h4.592zm4.406-3.5 2.464 3.5h-1.288l-1.862-2.646-1.764 2.646h-1.33l2.45-3.584-2.352-3.332h1.344l1.722 2.506 1.708-2.506h1.288zm6.204 3.696c-2.03 0-3.528-1.554-3.528-3.654s1.526-3.654 3.528-3.654c1.82 0 3.024.966 3.276 2.478h-1.148c-.252-.812-.994-1.442-2.128-1.442-1.302 0-2.38.994-2.38 2.618s1.106 2.618 2.38 2.618c1.162 0 1.834-.574 2.128-1.442h1.148c-.336 1.512-1.484 2.478-3.276 2.478m7.046 0c-1.442 0-2.366-1.092-2.366-2.618v-4.494h1.148v4.312c0 1.134.728 1.792 1.666 1.792.924 0 1.666-.658 1.666-1.792v-4.312h1.148V486h-1.078v-.966c-.322.616-1.022 1.162-2.184 1.162m7.499-7.112h1.274v1.064h-1.386c-.728 0-1.078.364-1.078 1.092V486h-1.148v-6.916h1.064v.98c.154-.686.644-.98 1.274-.98m4.76 7.112c-1.61 0-2.576-1.022-2.576-2.436h1.148c0 .798.532 1.428 1.428 1.428.812 0 1.386-.462 1.386-1.106 0-.588-.336-.882-1.176-1.12l-1.022-.294c-.952-.28-1.596-.91-1.596-1.862 0-1.204 1.092-1.918 2.38-1.918 1.386 0 2.324.882 2.324 2.03h-1.092c0-.602-.546-1.05-1.232-1.05-.714 0-1.26.322-1.26.882 0 .518.35.812 1.148 1.05l1.022.308c.952.28 1.652.84 1.652 1.876 0 1.288-1.092 2.212-2.534 2.212m4.537-8.288a.85.85 0 0 1-.854-.854.84.84 0 0 1 .854-.854c.49 0 .854.364.854.854a.84.84 0 0 1-.854.854m.574 8.092h-1.148v-6.916h1.148zm5.058.196c-2.114 0-3.654-1.582-3.654-3.654s1.54-3.654 3.654-3.654 3.654 1.582 3.654 3.654-1.54 3.654-3.654 3.654m0-1.036c1.358 0 2.506-.994 2.506-2.618s-1.148-2.618-2.506-2.618-2.506.994-2.506 2.618 1.148 2.618 2.506 2.618m6.208.84h-1.148v-6.916h1.078v.966c.322-.588 1.064-1.162 2.184-1.162 1.512 0 2.366 1.064 2.366 2.534V486h-1.148v-4.312c0-1.134-.784-1.792-1.666-1.792-.868 0-1.666.658-1.666 1.792zm-94.805 30h-2.96v-14h2.96l6.04 9.08c-.04-.78-.04-1.18-.04-1.76V502h2.96v14h-2.96l-6.04-9.08c.04.78.04 1.18.04 1.76zm19.391 0h-9.34v-2.2l4.72-4.78c1-1 1.58-1.68 1.58-2.86 0-1-.68-1.72-1.72-1.72-1.12 0-1.78.74-1.84 1.8h-2.78c0-2.72 1.84-4.52 4.66-4.52 2.96 0 4.56 1.72 4.56 4.32 0 1.68-.74 3-2.34 4.62l-2.58 2.62h5.08zm10.147 0h-9.34v-2.2l4.72-4.78c1-1 1.58-1.68 1.58-2.86 0-1-.68-1.72-1.72-1.72-1.12 0-1.78.74-1.84 1.8h-2.78c0-2.72 1.84-4.52 4.66-4.52 2.96 0 4.56 1.72 4.56 4.32 0 1.68-.74 3-2.34 4.62l-2.58 2.62h5.08zm1.687 3.02h-.42v-1.44h.26c.68 0 1.3-.36 1.42-1.38-.12.06-.24.08-.4.08-.98 0-1.74-.74-1.74-1.76 0-.98.78-1.76 1.76-1.76 1.26 0 1.96 1.16 1.96 2.68 0 2.44-1.18 3.58-2.84 3.58m9.267-2.74c-3.24 0-5.76-2.5-5.76-7.28s2.52-7.28 5.76-7.28 5.76 2.5 5.76 7.28-2.52 7.28-5.76 7.28m0-2.76c1.64 0 2.8-1.62 2.8-4.52s-1.16-4.52-2.8-4.52-2.8 1.62-2.8 4.52 1.16 4.52 2.8 4.52m12.471 2.76c-3.24 0-5.76-2.5-5.76-7.28s2.52-7.28 5.76-7.28 5.76 2.5 5.76 7.28-2.52 7.28-5.76 7.28m0-2.76c1.64 0 2.8-1.62 2.8-4.52s-1.16-4.52-2.8-4.52-2.8 1.62-2.8 4.52 1.16 4.52 2.8 4.52m12.471 2.76c-3.24 0-5.76-2.5-5.76-7.28s2.52-7.28 5.76-7.28 5.76 2.5 5.76 7.28-2.52 7.28-5.76 7.28m0-2.76c1.64 0 2.8-1.62 2.8-4.52s-1.16-4.52-2.8-4.52-2.8 1.62-2.8 4.52 1.16 4.52 2.8 4.52m8.176 2.76c-.98 0-1.76-.78-1.76-1.76s.78-1.76 1.76-1.76 1.76.78 1.76 1.76-.78 1.76-1.76 1.76m8.192 0c-3.24 0-5.76-2.5-5.76-7.28s2.52-7.28 5.76-7.28 5.76 2.5 5.76 7.28-2.52 7.28-5.76 7.28m0-2.76c1.64 0 2.8-1.62 2.8-4.52s-1.16-4.52-2.8-4.52-2.8 1.62-2.8 4.52 1.16 4.52 2.8 4.52m12.471 2.76c-3.24 0-5.76-2.5-5.76-7.28s2.52-7.28 5.76-7.28 5.76 2.5 5.76 7.28-2.52 7.28-5.76 7.28m0-2.76c1.64 0 2.8-1.62 2.8-4.52s-1.16-4.52-2.8-4.52-2.8 1.62-2.8 4.52 1.16 4.52 2.8 4.52"/><path stroke="#000" d="M359.667 19.836h16.666c1.197 0 2.167.97 2.167 2.167v6c0 1.196-.97 2.166-2.167 2.166h-16.666a2.166 2.166 0 0 1-2.167-2.166v-6l.011-.222a2.167 2.167 0 0 1 2.156-1.945Z" opacity=".35"/><path fill="#000" d="M380 23.004v4a2.17 2.17 0 0 0 0-4" opacity=".4"/><path fill="#000" d="M359 22.67c0-.737.597-1.334 1.333-1.334h15.334c.736 0 1.333.597 1.333 1.333v4.667c0 .736-.597 1.333-1.333 1.333h-15.334A1.333 1.333 0 0 1 359 27.336z"/><path fill="#000" fill-rule="evenodd" d="M342.122 27.733a3.42 3.42 0 0 1 4.42 0c.064.058.102.14.104.226a.32.32 0 0 1-.095.23l-1.997 2.016a.314.314 0 0 1-.444 0l-1.997-2.015a.315.315 0 0 1 .009-.457m-2.665-2.69a7.16 7.16 0 0 1 9.752 0 .324.324 0 0 1 .005.46l-1.154 1.166a.31.31 0 0 1-.434.006 4.907 4.907 0 0 0-6.586 0 .31.31 0 0 1-.434-.006l-1.154-1.167a.324.324 0 0 1 .005-.459m-2.665-2.681a10.9 10.9 0 0 1 15.08 0 .324.324 0 0 1 .002.456l-1.156 1.166a.31.31 0 0 1-.433.003 8.64 8.64 0 0 0-11.907 0 .307.307 0 0 1-.433-.002l-1.156-1.167a.33.33 0 0 1-.094-.229.33.33 0 0 1 .097-.227" clip-rule="evenodd"/><path fill="#000" d="M316.668 26.335a1 1 0 0 1 1 1v2a1 1 0 0 1-1 1h-1a1 1 0 0 1-1-1v-2a1 1 0 0 1 1-1zm4.666-2a1 1 0 0 1 1 1v4a1 1 0 0 1-1 1h-1a1 1 0 0 1-1-1v-4a1 1 0 0 1 1-1zm4.667-2.334a1 1 0 0 1 1 1v6.334a1 1 0 0 1-1 1h-1a1 1 0 0 1-1-1v-6.334a1 1 0 0 1 1-1zm4.667-2.333a1 1 0 0 1 1 1v8.667a1 1 0 0 1-1 1h-1a1 1 0 0 1-1-1v-8.667a1 1 0 0 1 1-1zM58.32 30.257c2.688 0 4.285-2.102 4.285-5.662 0-1.34-.256-2.468-.747-3.34-.71-1.355-1.934-2.087-3.48-2.087-2.299 0-3.925 1.545-3.925 3.713 0 2.037 1.465 3.516 3.48 3.516 1.237 0 2.24-.579 2.738-1.582h.125c0 2.417-.916 3.86-2.461 3.86-.908 0-1.611-.498-1.853-1.297H54.6c.315 1.736 1.787 2.879 3.72 2.879m.066-5.362c-1.216 0-2.08-.864-2.08-2.072 0-1.18.908-2.08 2.088-2.08 1.179 0 2.087.915 2.087 2.11 0 1.178-.886 2.042-2.095 2.042m7.31 5.259c.696 0 1.172-.498 1.172-1.157 0-.666-.476-1.157-1.172-1.157-.688 0-1.172.49-1.172 1.157 0 .66.484 1.157 1.172 1.157m0-5.493c.696 0 1.172-.49 1.172-1.15 0-.666-.476-1.157-1.172-1.157-.688 0-1.172.49-1.172 1.157 0 .66.484 1.15 1.172 1.15M73.724 30h1.809v-1.97h1.428v-1.596h-1.428v-7.002h-2.666c-1.868 2.812-3.355 5.163-4.307 6.914v1.684h5.164zm-3.413-3.632a80 80 0 0 1 3.34-5.398h.102v5.508h-3.442zM80.99 30h1.89V19.432h-1.883l-2.761 1.933v1.817l2.63-1.846h.124z"/></g><defs><clipPath id="a"><rect width="428" height="1022" fill="#fff" rx="24"/></clipPath><clipPath id="b"><path fill="#fff" d="M0 0h428v164c0 22.091-17.909 40-40 40H40c-22.091 0-40-17.909-40-40z"/></clipPath><clipPath id="c"><rect width="366" height="141" x="31" y="248" fill="#fff" rx="16"/></clipPath><filter id="d" width="392.8" height="101.8" x="17.6" y="589.6" color-interpolation-filters="sRGB" filterUnits="userSpaceOnUse"><feFlood flood-opacity="0" result="BackgroundImageFix"/><feColorMatrix in="SourceAlpha" result="hardAlpha" values="0 0 0 0 0 0 0 0 0 0 0 0 0 0 0 0 0 0 127 0"/><feOffset/><feGaussianBlur stdDeviation="7.2"/><feComposite in2="hardAlpha" operator="out"/><feColorMatrix values="0 0 0 0 0 0 0 0 0 0 0 0 0 0 0 0 0 0 0.02 0"/><feBlend in2="BackgroundImageFix" result="effect1_dropShadow_436_7154"/><feBlend in="SourceGraphic" in2="effect1_dropShadow_436_7154" result="shape"/></filter><filter id="e" width="392.8" height="101.8" x="17.6" y="678.6" color-interpolation-filters="sRGB" filterUnits="userSpaceOnUse"><feFlood flood-opacity="0" result="BackgroundImageFix"/><feColorMatrix in="SourceAlpha" result="hardAlpha" values="0 0 0 0 0 0 0 0 0 0 0 0 0 0 0 0 0 0 127 0"/><feOffset/><feGaussianBlur stdDeviation="7.2"/><feComposite in2="hardAlpha" operator="out"/><feColorMatrix values="0 0 0 0 0 0 0 0 0 0 0 0 0 0 0 0 0 0 0.02 0"/><feBlend in2="BackgroundImageFix" result="effect1_dropShadow_436_7154"/><feBlend in="SourceGraphic" in2="effect1_dropShadow_436_7154" result="shape"/></filter></defs></svg>